<svg xmlns="http://www.w3.org/2000/svg" xmlns:xlink="http://www.w3.org/1999/xlink" viewBox="0,0,256,256" width="32px" height="32px" fill-rule="nonzero"><g fill="#ffffff" fill-rule="nonzero" stroke="none" stroke-width="1" stroke-linecap="butt" stroke-linejoin="miter" stroke-miterlimit="10" stroke-dasharray="" stroke-dashoffset="0" font-family="none" font-weight="none" font-size="none" text-anchor="none" style="mix-blend-mode: normal"><g transform="scale(0.5,0.5)"><path d="M16.19922,57c-3.35829,-0.00085 -6.10676,2.67228 -6.19922,6.0293v296.70117c0.07082,3.40567 2.79456,6.16031 6.19922,6.26953h265.07226c35.43184,28.65599 86.37075,27.55988 120.53711,-2.59375l11.8125,11.7793l-8.82031,8.79883c-1.1256,1.12364 -1.75812,2.6488 -1.75812,4.23926c0,1.59045 0.63252,3.11561 1.75812,4.23926l55.36914,55.36523c9.53568,9.45954 24.92506,9.42826 34.42221,-0.06996c9.49715,-9.49822 9.52669,-24.88761 0.06607,-34.42222l-55.36914,-55.36719c-1.12526,-1.12554 -2.65161,-1.75788 -4.24317,-1.75788c-1.59156,0 -3.1179,0.63234 -4.24316,1.75788l-8.69921,8.70117l-11.8125,-11.8125c21.40194,-24.3046 28.68925,-57.95981 19.25815,-88.94063c-9.43109,-30.98082 -34.23495,-54.86693 -65.54917,-63.12382v-99.18555c-0.00062,-2.45701 -1.49918,-4.66535 -3.78217,-5.57355c-2.28299,-0.9082 -4.889,-0.33271 -6.57721,1.45246l-37.00976,39.13086l-32.75977,-21.2168c-2.52962,-1.63856 -5.88223,-1.14625 -7.83398,1.15039l-33.80859,39.78516l-12.5293,-5.2793c-2.61762,-1.10172 -5.64912,-0.2173 -7.26367,2.11914l-21.1836,30.66992l-35.95117,-36.6914c-1.49643,-1.52814 -3.69319,-2.14416 -5.766,-1.6169c-2.07281,0.52726 -3.70822,2.11805 -4.29259,4.17549l-16.19336,56.93164l-7.29492,-4.52539c-2.59403,-1.60883 -5.98251,-1.01368 -7.87305,1.38281l-21.22656,26.90625l-29.625,-30.78125c-1.41946,-1.4748 -3.49285,-2.1242 -5.5,-1.72265c-2.05555,0.39507 -3.77982,1.78693 -4.59961,3.71289l-14.92969,38v-178.58789c0.08572,-1.55322 -0.4654,-3.07426 -1.52617,-4.21206c-1.06077,-1.1378 -2.53951,-1.79404 -4.09492,-1.81723zM22,69h14v203.56641l-1.04297,2.6875l1.04297,0.39843v57.90039c0.14103,3.47447 2.90614,6.26921 6.37891,6.44727h216.61328c2.892,5 6.24419,9 9.99219,14h-246.98438zM352,118.68555v81.76172c-3.93853,-0.50043 -7.9048,-0.75093 -11.875,-0.75c-21.29171,-0.01952 -41.94577,7.26548 -58.51367,20.63867l-16.13867,-10.11328c-2.56431,-1.60669 -5.92373,-1.05237 -7.83594,1.29296l-23.40039,28.68165l-38.14844,-28.80469c-2.57654,-1.9461 -6.23114,-1.50416 -8.26953,1l-38.26563,47.03515l-22.44335,-16.65039c-1.35811,-1.00592 -3.07748,-1.39241 -4.73542,-1.06447c-1.65795,0.32795 -3.10069,1.33991 -3.97357,2.78713l-25.71094,42.57617l-28.09961,-6.07617c-2.67251,-0.56766 -5.40451,0.66316 -6.75,3.04102l-9.83984,18.09375v-27.32422l22.71289,-58.08985l27.9707,28.9668c1.21603,1.24842 2.90953,1.91468 4.65023,1.8295c1.7407,-0.08519 3.36105,-0.91361 4.44938,-2.27481l22.18164,-28.09961l9.5,5.89258c1.59997,0.99384 3.57376,1.17868 5.33043,0.4992c1.75667,-0.67948 3.09233,-2.14443 3.60707,-3.95624l15.54493,-54.64453l33.80859,34.5c1.25341,1.27933 3.01281,1.93183 4.7973,1.77915c1.78449,-0.15268 3.40748,-1.09456 4.42536,-2.56821l22.54687,-32.64062l12.0918,5.08984c2.41301,1.01534 5.20577,0.34897 6.90039,-1.64648l33.24219,-39.11915l32.54101,21.07227c2.42849,1.57262 5.63337,1.18823 7.6211,-0.91406zM342.50586,211.73242c44.49862,1.32109 79.69808,38.11522 79.04754,82.62868c-0.65054,44.51347 -36.91019,80.26326 -81.4284,80.28343c-44.97478,-0.05144 -81.42122,-36.49787 -81.47266,-81.47265c-0.00006,-22.02092 8.91375,-43.1041 24.71063,-58.44619c15.79687,-15.3421 37.13136,-23.63641 59.14289,-22.99327zM263.58789,223.19922l8.86328,5.55664c-16.58056,17.43433 -25.81882,40.57894 -25.80078,64.63867c0.02047,11.84123 2.2411,23.57557 6.54883,34.60547h-204.77734l18.06055,-34.08984l27.85938,5.91211c2.51605,0.52029 5.0854,-0.6111 6.40039,-2.81836l24.51367,-40.62891l21.75586,16.125c2.57926,1.91026 6.20509,1.45241 8.22851,-1.03906l38.23633,-47l38.14063,28.80078c2.57586,1.94354 6.22757,1.50174 8.26562,-1zM340.125,225c-37.64734,0.00054 -68.16621,30.51998 -68.16603,68.16732c0.00018,37.64734 30.51933,68.1665 68.16668,68.16668c37.64734,0.00018 68.16679,-30.51869 68.16732,-68.16603c-0.04245,-37.63053 -30.53744,-68.12552 -68.16797,-68.16797zM337.78906,237.04688c15.28907,-0.63668 30.17604,4.99228 41.21896,15.58544c11.04292,10.59315 17.28569,25.23333 17.28495,40.53565c-0.03311,31.0073 -25.16067,56.13573 -56.16797,56.16992v-0.00586c-30.56253,-0.00331 -55.51309,-24.44285 -56.14876,-54.99877c-0.63567,-30.55592 23.27687,-56.01199 53.81282,-57.28638zM435.04688,370.69922l51.12695,51.12695c2.32352,2.32308 3.6289,5.47412 3.6289,8.75977c0,3.28565 -1.30538,6.43668 -3.6289,8.75977v-0.0039c-2.32308,2.32352 -5.47412,3.6289 -8.75977,3.6289c-3.28565,0 -6.43668,-1.30538 -8.75977,-3.6289l-51.12696,-51.12696z"></path></g></g></svg>