<svg xmlns="http://www.w3.org/2000/svg" xmlns:xlink="http://www.w3.org/1999/xlink" viewBox="0,0,256,256" width="100px" height="100px" fill-rule="nonzero"><g fill-opacity="0.36863" fill="#2ca2d3" fill-rule="nonzero" stroke="none" stroke-width="1" stroke-linecap="butt" stroke-linejoin="miter" stroke-miterlimit="10" stroke-dasharray="" stroke-dashoffset="0" font-family="none" font-weight="none" font-size="none" text-anchor="none" style="mix-blend-mode: normal"><g transform="scale(8.53333,8.53333)"><path d="M15,3c-3.314,0 -6,2.686 -6,6v1c0,3.314 2.686,6 6,6c3.314,0 6,-2.686 6,-6v-1c0,-3.314 -2.686,-6 -6,-6zM11.09766,19.55273c-2.935,0.767 -5.70361,2.21106 -6.72461,3.53906c-0.914,1.188 -0.04392,2.9082 1.45508,2.9082h18.3418c1.499,0 2.36908,-1.72116 1.45508,-2.91016c-1.021,-1.328 -3.78866,-2.77011 -6.72266,-3.53711c-1.05,0.901 -2.41134,1.44727 -3.90234,1.44727c-1.492,0 -2.85234,-0.54727 -3.90234,-1.44727z"></path></g></g></svg>