<svg xmlns="http://www.w3.org/2000/svg" xmlns:xlink="http://www.w3.org/1999/xlink" viewBox="0,0,256,256" width="34px" height="34px" fill-rule="nonzero"><g fill="#000" fill-rule="nonzero" stroke="none" stroke-width="1" stroke-linecap="butt" stroke-linejoin="miter" stroke-miterlimit="10" stroke-dasharray="" stroke-dashoffset="0" font-family="none" font-weight="none" font-size="none" text-anchor="none" style="mix-blend-mode: normal"><g transform="scale(5.33333,5.33333)"><path d="M24,4.0957c-1.20433,0 -2.40719,0.39172 -3.40234,1.17578l-14.02539,11.05078c-0.5013,0.39564 -0.69717,1.06527 -0.48811,1.66869c0.20906,0.60342 0.77723,1.00834 1.41584,1.00904h33c0.63861,-0.0007 1.20678,-0.40562 1.41584,-1.00904c0.20906,-0.60342 0.01319,-1.27305 -0.48811,-1.66869l-14.02344,-11.05078c-0.99516,-0.78406 -2.19997,-1.17578 -3.4043,-1.17578zM24,7.08789c0.54517,0 1.09003,0.18108 1.54688,0.54102l10.62695,8.37109h-24.34766l10.62695,-8.37109c0.45684,-0.35994 1.0017,-0.54102 1.54688,-0.54102zM24,10c-1.10457,0 -2,0.89543 -2,2c0,1.10457 0.89543,2 2,2c1.10457,0 2,-0.89543 2,-2c0,-1.10457 -0.89543,-2 -2,-2zM9.5,21v13.12109c-1.99958,0.45729 -3.5,2.24337 -3.5,4.37891c0,2.48 2.02,4.5 4.5,4.5h10.5v-3h-10.5c-0.83,0 -1.5,-0.67 -1.5,-1.5c0,-0.83 0.67,-1.5 1.5,-1.5h10.5v-3h-2v-13h-3v13h-3.5v-13zM22.5,21v7.64063c0.56,-0.41 1.26,-0.64062 2,-0.64062h1v-7zM29,21v7h3v-7zM35.5,21v7h3v-7zM25.5,30c-1.36359,0 -2.5,1.13641 -2.5,2.5v11c0,1.36359 1.13641,2.5 2.5,2.5h18c1.36359,0 2.5,-1.13641 2.5,-2.5v-11c0,-1.36359 -1.13641,-2.5 -2.5,-2.5zM26,33h17v2h-17zM26,38h17v5h-17z"></path></g></g></svg>