<svg xmlns="http://www.w3.org/2000/svg" xmlns:xlink="http://www.w3.org/1999/xlink" viewBox="0,0,256,256" width="24px" height="24px" fill-rule="nonzero"><g fill="#707070" fill-rule="nonzero" stroke="none" stroke-width="1" stroke-linecap="butt" stroke-linejoin="miter" stroke-miterlimit="10" stroke-dasharray="" stroke-dashoffset="0" font-family="none" font-weight="none" font-size="none" text-anchor="none" style="mix-blend-mode: normal"><g transform="scale(10.66667,10.66667)"><path d="M7,1c-0.552,0 -1,0.448 -1,1v1h-1c-1.1,0 -2,0.9 -2,2v14c0,1.1 0.9,2 2,2h7.99805c0.265,0 0.52003,-0.10497 0.70703,-0.29297c0.63,-0.63 0.18397,-1.70703 -0.70703,-1.70703h-7.99805v-11h14v4.99805c0,0.891 1.07703,1.33703 1.70703,0.70703c0.188,-0.187 0.29297,-0.44203 0.29297,-0.70703v-7.99805c0,-1.1 -0.9,-2 -2,-2h-1v-1c0,-0.552 -0.448,-1 -1,-1c-0.552,0 -1,0.448 -1,1v1h-8v-1c0,-0.552 -0.448,-1 -1,-1zM22.58594,15c-0.362,0 -0.724,0.13806 -1,0.41406l-0.73242,0.73242l2,2l0.73242,-0.73242c0.552,-0.552 0.552,-1.448 0,-2c-0.276,-0.276 -0.638,-0.41406 -1,-0.41406zM20.14648,16.85352l-5,5c-0.093,0.094 -0.14648,0.22052 -0.14648,0.35352v1.29297c0,0.276 0.224,0.5 0.5,0.5h1.29297c0.132,0 0.25952,-0.05348 0.35352,-0.14648l5,-5z"></path></g></g></svg>