<svg xmlns="http://www.w3.org/2000/svg" xmlns:xlink="http://www.w3.org/1999/xlink" viewBox="0,0,256,256" width="30px" height="30px" fill-rule="nonzero"><g fill-opacity="0.23922" fill="#000000" fill-rule="nonzero" stroke="none" stroke-width="1" stroke-linecap="butt" stroke-linejoin="miter" stroke-miterlimit="10" stroke-dasharray="" stroke-dashoffset="0" font-family="none" font-weight="none" font-size="none" text-anchor="none" style="mix-blend-mode: normal"><g transform="scale(5.33333,5.33333)"><path d="M10.5,5c-0.829,0 -1.5,0.671 -1.5,1.5v0.68359c-2.85498,0.68373 -5,3.2612 -5,6.31641v21c0,3.57194 2.92806,6.5 6.5,6.5h27c3.57194,0 6.5,-2.92806 6.5,-6.5v-21c0,-3.57194 -2.92806,-6.5 -6.5,-6.5h-18.5v-0.5c0,-0.829 -0.671,-1.5 -1.5,-1.5zM10.5,10h27c1.95006,0 3.5,1.54994 3.5,3.5v21c0,1.95006 -1.54994,3.5 -3.5,3.5h-27c-1.95006,0 -3.5,-1.54994 -3.5,-3.5v-21c0,-1.95006 1.54994,-3.5 3.5,-3.5zM12.5,15c-0.54095,-0.00765 -1.04412,0.27656 -1.31683,0.74381c-0.27271,0.46725 -0.27271,1.04514 0,1.51238c0.27271,0.46725 0.77588,0.75146 1.31683,0.74381h3c0.54095,0.00765 1.04412,-0.27656 1.31683,-0.74381c0.27271,-0.46725 0.27271,-1.04514 0,-1.51238c-0.27271,-0.46725 -0.77588,-0.75146 -1.31683,-0.74381zM28,15c-4.9528,0 -9,4.04721 -9,9c0,4.95279 4.0472,9 9,9c4.9528,0 9,-4.04721 9,-9c0,-4.95279 -4.0472,-9 -9,-9zM28,18c3.33148,0 6,2.66852 6,6c0,3.33148 -2.66852,6 -6,6c-3.33148,0 -6,-2.66852 -6,-6c0,-3.33148 2.66852,-6 6,-6z"></path></g></g></svg>