<svg xmlns="http://www.w3.org/2000/svg" xmlns:xlink="http://www.w3.org/1999/xlink" viewBox="0,0,256,256" width="24px" height="24px" fill-rule="nonzero"><g fill="none" fill-rule="nonzero" stroke="none" stroke-width="1" stroke-linecap="butt" stroke-linejoin="miter" stroke-miterlimit="10" stroke-dasharray="" stroke-dashoffset="0" font-family="none" font-weight="none" font-size="none" text-anchor="none" style="mix-blend-mode: normal"><g transform="scale(8.53333,8.53333)"><path d="M15,17.722l-8.571,8.571l-2.722,-2.722l8.571,-8.571l-8.571,-8.571l2.722,-2.722l8.571,8.571l8.571,-8.571l2.722,2.722l-8.571,8.571l8.571,8.571l-2.722,2.722z" fill="#e2164b"></path><path d="M23.571,4.414l2.014,2.014l-7.864,7.864l-0.707,0.708l0.707,0.707l7.864,7.864l-2.014,2.014l-7.864,-7.864l-0.707,-0.707l-0.707,0.707l-7.864,7.864l-2.014,-2.014l7.864,-7.864l0.707,-0.707l-0.707,-0.707l-7.865,-7.864l2.014,-2.014l7.864,7.864l0.708,0.707l0.707,-0.707l7.864,-7.865M23.571,3l-8.571,8.571l-8.571,-8.571l-3.429,3.429l8.571,8.571l-8.571,8.571l3.429,3.429l8.571,-8.571l8.571,8.571l3.429,-3.429l-8.571,-8.571l8.571,-8.571l-3.429,-3.429z" fill="#c74343"></path></g></g></svg>