<svg width="8" height="14" viewBox="0 0 8 14" fill="none" xmlns="http://www.w3.org/2000/svg">
<path d="M0.669885 14C0.582232 14.0005 0.495341 13.9844 0.414194 13.9528C0.333048 13.9211 0.259242 13.8744 0.197008 13.8155C0.134583 13.7563 0.0850349 13.686 0.0512218 13.6084C0.0174087 13.5309 0 13.4477 0 13.3637C0 13.2798 0.0174087 13.1966 0.0512218 13.1191C0.0850349 13.0415 0.134583 12.9712 0.197008 12.912L6.39102 7.0013L0.197008 1.09058C0.0715939 0.970775 0.0011367 0.808281 0.0011367 0.638848C0.0011367 0.469415 0.0715939 0.306922 0.197008 0.187114C0.322423 0.067307 0.492522 0 0.669885 0C0.847248 0 1.01735 0.067307 1.14276 0.187114L7.80299 6.54956C7.86542 6.60871 7.91496 6.67908 7.94878 6.75661C7.98259 6.83414 8 6.9173 8 7.0013C8 7.08529 7.98259 7.16845 7.94878 7.24598C7.91496 7.32351 7.86542 7.39388 7.80299 7.45303L1.14276 13.8155C1.08053 13.8744 1.00672 13.9211 0.925575 13.9528C0.844429 13.9844 0.757538 14.0005 0.669885 14Z" fill="#0364FF"/>
</svg>
