<svg width="12" height="6" viewBox="0 0 14 8" fill="none" xmlns="http://www.w3.org/2000/svg">
<path d="M13.8118 1.14276L7.45107 7.80299C7.39194 7.86542 7.32159 7.91496 7.24408 7.94878C7.16657 7.98259 7.08343 8 6.99946 8C6.91549 8 6.83235 7.98259 6.75484 7.94878C6.67732 7.91496 6.60697 7.86542 6.54784 7.80299L0.187065 1.14276C0.0672893 1.01735 0 0.847248 0 0.669885C0 0.492522 0.0672893 0.322423 0.187065 0.197008C0.306841 0.0715939 0.469292 0.0011367 0.63868 0.0011367C0.808069 0.0011367 0.97052 0.0715939 1.0903 0.197008L6.99946 6.39102L12.9086 0.197008C12.9678 0.134583 13.0381 0.0850349 13.1156 0.0512218C13.1931 0.0174087 13.2763 0 13.3602 0C13.4442 0 13.5273 0.0174087 13.6049 0.0512218C13.6824 0.0850349 13.7527 0.134583 13.8118 0.197008C13.8715 0.258924 13.9188 0.332587 13.9511 0.413748C13.9834 0.494909 14 0.581962 14 0.669885C14 0.757808 13.9834 0.844861 13.9511 0.926022C13.9188 1.00718 13.8715 1.08085 13.8118 1.14276Z" fill="#AEB3CD"/>
</svg>
