<svg width="8" height="12" viewBox="0 0 16 28" fill="none" xmlns="http://www.w3.org/2000/svg">
<path d="M13.7145 27.6237L0.394017 14.9021C0.269166 14.7839 0.17007 14.6432 0.102444 14.4882C0.0348173 14.3331 0 14.1669 0 13.9989C0 13.831 0.0348173 13.6647 0.102444 13.5097C0.17007 13.3546 0.269166 13.2139 0.394017 13.0957L13.7145 0.37413C13.8387 0.255516 13.9861 0.161427 14.1484 0.0972333C14.3107 0.0330399 14.4846 2.4996e-09 14.6602 0C14.8359 -2.4996e-09 15.0098 0.0330399 15.1721 0.0972333C15.3343 0.161427 15.4818 0.255516 15.606 0.37413C15.7302 0.492744 15.8287 0.633559 15.8959 0.788536C15.9631 0.943512 15.9977 1.10962 15.9977 1.27736C15.9977 1.44511 15.9631 1.61121 15.8959 1.76619C15.8287 1.92116 15.7302 2.06198 15.606 2.18059L3.21795 13.9989L15.606 25.8172C15.7308 25.9355 15.8299 26.0762 15.8976 26.2312C15.9652 26.3863 16 26.5525 16 26.7205C16 26.8884 15.9652 27.0547 15.8976 27.2097C15.8299 27.3647 15.7308 27.5054 15.606 27.6237C15.4822 27.7429 15.3348 27.8376 15.1725 27.9022C15.0102 27.9667 14.8361 28 14.6602 28C14.4844 28 14.3103 27.9667 14.148 27.9022C13.9856 27.8376 13.8383 27.7429 13.7145 27.6237Z" fill="#707070"/>
</svg>
