<svg width="14" height="14" viewBox="0 0 14 14" fill="none" xmlns="http://www.w3.org/2000/svg">
<path d="M13.8119 12.9086C13.8715 12.9678 13.9188 13.0381 13.9511 13.1156C13.9834 13.1931 14 13.2763 14 13.3602C14 13.4442 13.9834 13.5273 13.9511 13.6049C13.9188 13.6824 13.8715 13.7527 13.8119 13.8118C13.7527 13.8715 13.6824 13.9188 13.6049 13.9511C13.5274 13.9834 13.4442 14 13.3603 14C13.2763 14 13.1932 13.9834 13.1157 13.9511C13.0382 13.9188 12.9678 13.8715 12.9087 13.8118L7 7.90269L1.0913 13.8118C1.03217 13.8715 0.961824 13.9188 0.884318 13.9511C0.806812 13.9834 0.72368 14 0.639716 14C0.555753 14 0.472621 13.9834 0.395115 13.9511C0.317609 13.9188 0.247263 13.8715 0.188136 13.8118C0.128522 13.7527 0.0812053 13.6824 0.048915 13.6049C0.0166247 13.5273 0 13.4442 0 13.3602C0 13.2763 0.0166247 13.1931 0.048915 13.1156C0.0812053 13.0381 0.128522 12.9678 0.188136 12.9086L6.1032 6.99946L0.188136 1.0903C0.0683696 0.97052 0.00108551 0.808069 0.00108551 0.63868C0.00108551 0.469292 0.0683696 0.306841 0.188136 0.187065C0.307903 0.0672893 0.470341 0 0.639716 0C0.809092 0 0.97153 0.0672893 1.0913 0.187065L7 6.09623L12.9087 0.187065C13.0285 0.0672893 13.1909 0 13.3603 0C13.5297 0 13.6921 0.0672893 13.8119 0.187065C13.9316 0.306841 13.9989 0.469292 13.9989 0.63868C13.9989 0.808069 13.9316 0.97052 13.8119 1.0903L7.8968 6.99946L13.8119 12.9086Z" fill="#FFFFFF"/>
</svg>
