<svg xmlns="http://www.w3.org/2000/svg" xmlns:xlink="http://www.w3.org/1999/xlink" viewBox="0,0,256,256" width="20px" height="20px" fill-rule="nonzero"><g fill="#707070" fill-rule="nonzero" stroke="none" stroke-width="1" stroke-linecap="butt" stroke-linejoin="miter" stroke-miterlimit="10" stroke-dasharray="" stroke-dashoffset="0" font-family="none" font-weight="none" font-size="none" text-anchor="none" style="mix-blend-mode: normal"><g transform="scale(5.33333,5.33333)"><path d="M15.5,6c-5.247,0 -9.5,4.253 -9.5,9.5v17.35938c0,1.337 0.66825,2.58613 1.78125,3.32813l1.21875,0.8125v-21.5c0,-3.59 2.91,-6.5 6.5,-6.5h21.5l-0.8125,-1.21875c-0.741,-1.113 -1.99012,-1.78125 -3.32812,-1.78125zM16.5,11c-3.01977,0 -5.5,2.48023 -5.5,5.5v20c0,3.01977 2.48023,5.5 5.5,5.5h20c3.01977,0 5.5,-2.48023 5.5,-5.5v-20c0,-3.01977 -2.48023,-5.5 -5.5,-5.5zM16.5,14h20c1.39823,0 2.5,1.10177 2.5,2.5v20c0,1.39823 -1.10177,2.5 -2.5,2.5h-20c-1.39823,0 -2.5,-1.10177 -2.5,-2.5v-20c0,-1.39823 1.10177,-2.5 2.5,-2.5z"></path></g></g></svg>