<svg xmlns="http://www.w3.org/2000/svg" xmlns:xlink="http://www.w3.org/1999/xlink" viewBox="0,0,256,256" width="32px" height="32px" fill-rule="nonzero"><g fill="#ffffff" fill-rule="nonzero" stroke="none" stroke-width="1" stroke-linecap="butt" stroke-linejoin="miter" stroke-miterlimit="10" stroke-dasharray="" stroke-dashoffset="0" font-family="none" font-weight="none" font-size="none" text-anchor="none" style="mix-blend-mode: normal"><g transform="scale(5.12,5.12)"><path d="M26.8125,5c-4.47266,0 -7.75,1.76563 -9.46875,4.375c-0.35156,0.53516 -0.625,1.09766 -0.84375,1.6875l-0.21875,-0.5c-0.16797,-0.34766 -0.51953,-0.56641 -0.90625,-0.5625c-3.48437,0 -6.08203,1.40234 -7.4375,3.5c-1.23828,1.91016 -1.30078,4.32422 -0.53125,6.5625c-0.33203,0.45703 -0.5625,1.01172 -0.46875,1.8125c0.10547,0.90234 0.34375,1.57031 0.71875,2.0625c0.16016,0.21094 0.39063,0.21094 0.59375,0.34375c0.13281,0.74219 0.32422,1.48047 0.625,2.09375c0.17969,0.36719 0.39063,0.68359 0.59375,0.96875c0.06641,0.09375 0.17969,0.16406 0.25,0.25c0.00391,0.78906 0,1.46484 -0.0625,2.28125c-0.18359,0.46484 -0.61328,0.89063 -1.4375,1.3125c-0.84375,0.43359 -1.99219,0.82813 -3.15625,1.34375c-1.16406,0.51563 -2.36719,1.13672 -3.34375,2.15625c-0.97656,1.01953 -1.67578,2.43359 -1.78125,4.25c-0.01562,0.27734 0.08203,0.54688 0.26953,0.74609c0.19141,0.20313 0.45313,0.31641 0.73047,0.31641h6.3125c-0.17187,0.60156 -0.30078,1.23828 -0.34375,1.9375c-0.01562,0.27734 0.08203,0.54688 0.26953,0.74609c0.19141,0.20313 0.45313,0.31641 0.73047,0.31641h34.1875c0.27734,0 0.53906,-0.11328 0.73047,-0.31641c0.1875,-0.19922 0.28516,-0.46875 0.26953,-0.74609c-0.04297,-0.69922 -0.17187,-1.33594 -0.34375,-1.9375h6.25c0.27734,0 0.53906,-0.11328 0.73047,-0.31641c0.1875,-0.19922 0.28516,-0.46875 0.26953,-0.74609c-0.10547,-1.80859 -0.8125,-3.20703 -1.78125,-4.21875c-0.96875,-1.01172 -2.15625,-1.64453 -3.3125,-2.15625c-1.15625,-0.51172 -2.28906,-0.91406 -3.125,-1.34375c-0.79687,-0.41016 -1.21484,-0.83203 -1.40625,-1.28125c-0.0625,-0.82422 -0.06641,-1.51172 -0.0625,-2.3125c0.0625,-0.08203 0.1875,-0.13281 0.25,-0.21875c0.19922,-0.28516 0.39063,-0.60156 0.5625,-0.96875c0.28125,-0.59375 0.46094,-1.32031 0.59375,-2.03125c0.21094,-0.13281 0.45703,-0.15625 0.625,-0.375c0.375,-0.49219 0.58203,-1.16406 0.6875,-2.0625c0.06641,-0.5625 0.02734,-1.05859 -0.15625,-1.5c-0.05078,-0.11719 -0.21094,-0.17187 -0.28125,-0.28125c0.20703,-0.49609 0.44141,-0.95312 0.5,-1.5625c0.08984,-0.92578 0.04297,-1.98437 -0.21875,-3c-0.26172,-1.01562 -0.73437,-2 -1.53125,-2.78125c-0.64062,-0.62891 -1.54297,-1.00391 -2.5625,-1.15625l-0.5,-1.09375c-0.16016,-0.35937 -0.51562,-0.58984 -0.90625,-0.59375c-1.37891,0 -2.77734,0.16406 -4.09375,0.5625c-0.35156,-0.80078 -0.82031,-1.5625 -1.46875,-2.1875c-0.84766,-0.81641 -2.06641,-1.28516 -3.4375,-1.4375l-0.6875,-1.375c-0.16406,-0.33594 -0.5,-0.55469 -0.875,-0.5625zM26.21875,7.0625l0.59375,1.1875c0.16406,0.33594 0.5,0.55469 0.875,0.5625c1.23438,0 2.06641,0.36719 2.71875,1c0.53906,0.51953 0.96875,1.22656 1.25,2.03125c0.00781,0.04297 0.01953,0.08594 0.03125,0.125c0.00391,0.00781 -0.00391,0.02344 0,0.03125c0.01953,0.12109 0.0625,0.23828 0.125,0.34375c0.00391,0.00781 -0.00391,0.02344 0,0.03125c0.26563,1.01563 0.30859,2.13281 0.21875,3.0625c-0.08984,0.92969 -0.38281,1.67578 -0.5625,1.90625c-0.19922,0.25 -0.26953,0.58203 -0.17969,0.89453c0.08594,0.30859 0.31641,0.55859 0.61719,0.66797c0.00781,0.01172 -0.01172,0.00781 0,0.03125c0.05469,0.125 0.10938,0.38672 0.0625,0.78125c-0.10547,0.88281 -0.32031,1.33984 -0.46875,1.53125c-0.14844,0.19141 -0.21094,0.15625 -0.1875,0.15625c-0.47266,0.03906 -0.84766,0.40625 -0.90625,0.875c-0.08203,0.77344 -0.39062,1.72266 -0.75,2.46875c-0.17969,0.37109 -0.37109,0.71484 -0.53125,0.9375c-0.16016,0.22266 -0.36328,0.34375 -0.25,0.28125c-0.32422,0.17188 -0.52734,0.50781 -0.53125,0.875c0,1.3125 -0.04297,2.37891 0.09375,3.90625c0.01172,0.08594 0.03125,0.16797 0.0625,0.25c0.52344,1.42578 1.74609,2.30469 3.0625,2.96875c1.31641,0.66406 2.8125,1.16797 4.21875,1.78125c1.40625,0.61328 2.68359,1.31641 3.625,2.28125c0.72656,0.74609 1.17969,1.75 1.4375,2.96875h-31.6875c0.26172,-1.21875 0.70703,-2.19141 1.4375,-2.9375c0.94531,-0.96484 2.24609,-1.69922 3.65625,-2.3125c1.41016,-0.61328 2.89844,-1.11719 4.21875,-1.78125c1.32031,-0.66406 2.53516,-1.54297 3.0625,-2.96875c0.03125,-0.08203 0.05078,-0.16406 0.0625,-0.25c0.13672,-1.52734 0.09375,-2.59375 0.09375,-3.90625c-0.00391,-0.36719 -0.20703,-0.70312 -0.53125,-0.875c0.10938,0.05859 -0.08594,-0.05469 -0.25,-0.28125c-0.16406,-0.22656 -0.34766,-0.56641 -0.53125,-0.9375c-0.37109,-0.74609 -0.69922,-1.70312 -0.78125,-2.46875c-0.05859,-0.46875 -0.43359,-0.83594 -0.90625,-0.875c0.02344,0 -0.03906,0.03516 -0.1875,-0.15625c-0.14844,-0.19141 -0.36328,-0.64844 -0.46875,-1.53125c-0.08594,-0.72656 0.29688,-0.95312 0.21875,-0.90625c0.42969,-0.25781 0.60156,-0.78906 0.40625,-1.25c-0.71484,-1.60937 -0.91797,-3.28906 -0.59375,-4.8125c0.01172,-0.03125 0.02344,-0.0625 0.03125,-0.09375c0.17578,-0.78125 0.49609,-1.51953 0.9375,-2.1875c1.24609,-1.89062 3.58984,-3.25781 7.1875,-3.40625zM36.78125,12.09375l0.34375,0.84375c0.16406,0.36719 0.53516,0.60156 0.9375,0.59375c0.39844,0 0.71875,0.05469 1,0.15625c-0.03516,0.10156 -0.0625,0.19922 -0.0625,0.3125c0,0.55078 0.44922,1 1,1c0.15234,0 0.27734,-0.0625 0.40625,-0.125c0.22266,0.36719 0.41406,0.78906 0.53125,1.25c0.19531,0.75781 0.25391,1.58594 0.1875,2.28125c-0.04687,0.48828 -0.17187,0.84375 -0.28125,1.09375c-0.17578,-0.29297 -0.48047,-0.5 -0.84375,-0.5c-0.55078,0 -1,0.44922 -1,1c0,0.55078 0.44922,1 1,1c0.22656,0 0.42578,-0.08984 0.59375,-0.21875c0.08594,0.21094 0.23828,0.38672 0.4375,0.5c0.02344,0.06641 0.0625,0.21094 0.03125,0.46875c-0.07812,0.65625 -0.23437,0.96094 -0.3125,1.0625c-0.03125,0.03906 -0.05859,0.02734 -0.0625,0.03125c-0.43359,0.08203 -0.76562,0.4375 -0.8125,0.875c-0.04687,0.44531 -0.21094,0.98438 -0.40625,1.46875c-0.27344,0.17969 -0.46875,0.46094 -0.46875,0.8125c0,0.03516 0.02734,0.05859 0.03125,0.09375c-0.02734,0.04688 -0.06641,0.12109 -0.09375,0.15625c-0.11328,0.16016 -0.25,0.23828 -0.09375,0.15625c-0.32422,0.17188 -0.52734,0.50781 -0.53125,0.875c0,1.01172 -0.04297,1.83594 0.0625,3.03125c0.01172,0.08594 0.03125,0.16797 0.0625,0.25c0.14844,0.41406 0.39063,0.75 0.65625,1.0625c0.00391,0.00781 -0.00391,0.02734 0,0.03125c-0.04297,0.11328 -0.09375,0.21484 -0.09375,0.34375c0,0.55078 0.44922,1 1,1c0.21094,0 0.40234,-0.07422 0.5625,-0.1875c0.10547,0.05859 0.20313,0.13281 0.3125,0.1875c0.79688,0.41016 1.65625,0.75 2.5,1.09375c0.23828,0.09766 0.48828,0.17969 0.71875,0.28125c1.05469,0.46875 2.00391,1.00781 2.6875,1.71875c0.47656,0.49609 0.79688,1.13672 1,1.90625h-0.78125c0,-0.55078 -0.44922,-1 -1,-1c-0.55078,0 -1,0.44922 -1,1h-3c-0.03125,0 -0.0625,0 -0.09375,0c-0.01172,0 -0.01953,0 -0.03125,0c-0.30469,-0.49609 -0.64453,-0.94531 -1.03125,-1.34375c-0.875,-0.89453 -1.90625,-1.55078 -2.96875,-2.09375c-0.16406,-0.32422 -0.48437,-0.5625 -0.875,-0.5625c-0.07031,0 -0.12109,0.04688 -0.1875,0.0625c-0.08594,-0.03906 -0.16406,-0.08984 -0.25,-0.125c-0.82812,-0.35937 -1.62109,-0.6875 -2.375,-1c0.45313,-0.09375 0.8125,-0.45703 0.8125,-0.9375c0,-0.55078 -0.44922,-1 -1,-1c-0.55078,0 -1,0.44922 -1,1c0,0.1875 0.06641,0.35156 0.15625,0.5c-0.22266,-0.10156 -0.48437,-0.21094 -0.6875,-0.3125c-1.07812,-0.54297 -1.74219,-1.10937 -2.03125,-1.78125c-0.01953,-0.22266 -0.01953,-0.41797 -0.03125,-0.625c0.16797,0.12891 0.36719,0.21875 0.59375,0.21875c0.55078,0 1,-0.44922 1,-1c0,-0.55078 -0.44922,-1 -1,-1c-0.25,0 -0.48047,0.09766 -0.65625,0.25c-0.00391,-0.33984 -0.00391,-0.66797 0,-1.03125c0.11719,-0.12891 0.29688,-0.22656 0.40625,-0.375c0.25,-0.34766 0.46484,-0.75781 0.6875,-1.21875c0.38281,-0.79297 0.65234,-1.74219 0.8125,-2.6875c0.28125,-0.15234 0.58594,-0.17578 0.8125,-0.46875c0.30469,-0.39453 0.55078,-0.89844 0.71875,-1.53125c0.07422,0.01953 0.13672,0.0625 0.21875,0.0625c0.55078,0 1,-0.44922 1,-1c0,-0.55078 -0.44922,-1 -1,-1c-0.01172,0 -0.01953,0 -0.03125,0c-0.03906,-0.30469 -0.10937,-0.58594 -0.21875,-0.84375c-0.07422,-0.17578 -0.29297,-0.25391 -0.40625,-0.40625c0.30859,-0.64844 0.60547,-1.28516 0.6875,-2.125c0.01953,-0.20703 0.02344,-0.41016 0.03125,-0.625c0.52344,-0.03516 0.9375,-0.46875 0.9375,-1c0,-0.55078 -0.44922,-1 -1,-1c-0.01172,0 -0.01953,0 -0.03125,0c-0.02734,-0.17578 -0.05859,-0.35156 -0.09375,-0.53125c0.89453,-0.24219 1.90625,-0.33203 2.90625,-0.375zM43.375,34.09375c-0.12109,-0.05078 -0.23828,-0.09375 -0.375,-0.09375c-0.55078,0 -1,0.44922 -1,1c0,0.55078 0.44922,1 1,1c0.55078,0 1,-0.44922 1,-1c0,-0.41406 -0.26562,-0.75391 -0.625,-0.90625zM14.8125,12.125l0.34375,0.71875c0.06641,0.13281 0.16406,0.25 0.28125,0.34375c-0.25781,0.17969 -0.4375,0.47266 -0.4375,0.8125c0,0.55078 0.44922,1 1,1c0.08594,0.93359 0.28125,1.87109 0.625,2.78125c-0.25,0.33594 -0.46875,0.75 -0.5625,1.25c-0.02344,0 -0.03906,-0.03125 -0.0625,-0.03125c-0.55078,0 -1,0.44922 -1,1c0,0.55078 0.44922,1 1,1c0.08203,0 0.14453,-0.04297 0.21875,-0.0625c0.16797,0.63281 0.41406,1.13672 0.71875,1.53125c0.23828,0.30469 0.55078,0.34375 0.84375,0.5c0.16797,0.9375 0.42578,1.875 0.8125,2.65625c0.22656,0.46094 0.46484,0.87109 0.71875,1.21875c0.10156,0.14063 0.26563,0.22266 0.375,0.34375c0,0.37109 0,0.71484 0,1.0625c-0.17969,-0.16406 -0.42578,-0.25 -0.6875,-0.25c-0.55078,0 -1,0.44922 -1,1c0,0.55078 0.44922,1 1,1c0.25,0 0.48047,-0.09766 0.65625,-0.25c-0.00781,0.19922 -0.01562,0.38281 -0.03125,0.59375c-0.27344,0.69531 -0.94922,1.28516 -2.0625,1.84375c-0.23437,0.11719 -0.48828,0.25781 -0.75,0.375c0.11328,-0.16016 0.1875,-0.35156 0.1875,-0.5625c0,-0.55078 -0.44922,-1 -1,-1c-0.55078,0 -1,0.44922 -1,1c0,0.49609 0.37109,0.89063 0.84375,0.96875c-0.75391,0.30859 -1.58203,0.61328 -2.40625,0.96875c-0.08594,0.03516 -0.16406,0.08594 -0.25,0.125c-0.06641,-0.01562 -0.11719,-0.0625 -0.1875,-0.0625c-0.39062,0 -0.71094,0.23828 -0.875,0.5625c-1.0625,0.54297 -2.08984,1.19922 -2.96875,2.09375c-0.39062,0.39844 -0.72656,0.85156 -1.03125,1.34375c-0.04297,-0.00391 -0.08203,-0.00391 -0.125,0h-3c0,-0.55078 -0.44922,-1 -1,-1c-0.55078,0 -1,0.44922 -1,1h-0.84375c0.20703,-0.77344 0.51953,-1.4375 1,-1.9375c0.6875,-0.71484 1.65234,-1.25 2.71875,-1.71875c1.06641,-0.46875 2.21875,-0.84766 3.25,-1.375c0.10938,-0.05469 0.20703,-0.12891 0.3125,-0.1875c0.16406,0.11719 0.34375,0.21875 0.5625,0.21875c0.55078,0 1,-0.44922 1,-1c0,-0.11719 -0.05859,-0.20703 -0.09375,-0.3125c0.29297,-0.32812 0.52734,-0.71094 0.6875,-1.15625c0.01953,-0.08203 0.03125,-0.16406 0.03125,-0.25c0.10547,-1.20312 0.09375,-2.04687 0.09375,-3.0625c0,-0.34375 -0.17969,-0.66016 -0.46875,-0.84375c-0.00391,0 -0.02344,-0.01172 -0.0625,-0.03125c-0.03906,-0.03125 -0.07422,-0.08203 -0.125,-0.15625c-0.01953,-0.02734 -0.04297,-0.08984 -0.0625,-0.125c0,-0.01953 0,-0.03906 0,-0.0625c0,-0.33984 -0.17969,-0.63281 -0.4375,-0.8125c-0.21484,-0.50391 -0.39062,-1.06641 -0.4375,-1.53125c-0.03906,-0.47266 -0.40625,-0.84766 -0.875,-0.90625c-0.00781,-0.00391 -0.01953,0.00391 -0.03125,0c-0.00781,-0.00781 0.01172,-0.01953 0,-0.03125c-0.08203,-0.10547 -0.23437,-0.40234 -0.3125,-1.0625c-0.03516,-0.29687 0.02344,-0.44531 0.0625,-0.5c0.03906,-0.02344 0.03516,-0.03516 0.03125,-0.03125c0.14453,-0.09375 0.26172,-0.22266 0.34375,-0.375c0.17578,0.15234 0.40625,0.25 0.65625,0.25c0.55078,0 1,-0.44922 1,-1c0,-0.55078 -0.44922,-1 -1,-1c-0.33984,0 -0.63281,0.17969 -0.8125,0.4375c-0.56641,-1.61719 -0.44141,-3.26953 0.3125,-4.59375c0.14844,0.08984 0.3125,0.15625 0.5,0.15625c0.55078,0 1,-0.44922 1,-1c0,-0.22656 -0.08984,-0.42578 -0.21875,-0.59375c0.96875,-0.70312 2.30859,-1.17578 4.03125,-1.28125zM13,16c-0.55078,0 -1,0.44922 -1,1c0,0.55078 0.44922,1 1,1c0.55078,0 1,-0.44922 1,-1c0,-0.55078 -0.44922,-1 -1,-1zM37,16c-0.55078,0 -1,0.44922 -1,1c0,0.55078 0.44922,1 1,1c0.55078,0 1,-0.44922 1,-1c0,-0.55078 -0.44922,-1 -1,-1zM13,22c-0.55078,0 -1,0.44922 -1,1c0,0.55078 0.44922,1 1,1c0.55078,0 1,-0.44922 1,-1c0,-0.55078 -0.44922,-1 -1,-1zM37,22c-0.55078,0 -1,0.44922 -1,1c0,0.55078 0.44922,1 1,1c0.55078,0 1,-0.44922 1,-1c0,-0.55078 -0.44922,-1 -1,-1zM16,25c-0.55078,0 -1,0.44922 -1,1c0,0.55078 0.44922,1 1,1c0.55078,0 1,-0.44922 1,-1c0,-0.55078 -0.44922,-1 -1,-1zM34,25c-0.55078,0 -1,0.44922 -1,1c0,0.55078 0.44922,1 1,1c0.55078,0 1,-0.44922 1,-1c0,-0.55078 -0.44922,-1 -1,-1zM13,28c-0.55078,0 -1,0.44922 -1,1c0,0.55078 0.44922,1 1,1c0.55078,0 1,-0.44922 1,-1c0,-0.55078 -0.44922,-1 -1,-1zM37,28c-0.55078,0 -1,0.44922 -1,1c0,0.55078 0.44922,1 1,1c0.55078,0 1,-0.44922 1,-1c0,-0.55078 -0.44922,-1 -1,-1zM7,34c-0.55078,0 -1,0.44922 -1,1c0,0.55078 0.44922,1 1,1c0.55078,0 1,-0.44922 1,-1c0,-0.55078 -0.44922,-1 -1,-1z"></path></g></g></svg>