<svg xmlns="http://www.w3.org/2000/svg" xmlns:xlink="http://www.w3.org/1999/xlink" viewBox="0,0,256,256" width="34px" height="34px" fill-rule="nonzero"><g fill="#fff" fill-rule="nonzero" stroke="none" stroke-width="1" stroke-linecap="butt" stroke-linejoin="miter" stroke-miterlimit="10" stroke-dasharray="" stroke-dashoffset="0" font-family="none" font-weight="none" font-size="none" text-anchor="none" style="mix-blend-mode: normal"><g transform="scale(4,4)"><path d="M8,7c-2.76,0 -5,2.24 -5,5v40c0,2.76 2.24,5 5,5h48c2.76,0 5,-2.24 5,-5v-40c0,-2.76 -2.24,-5 -5,-5zM8,9h48c1.65,0 3,1.35 3,3v3h-54v-3c0,-1.65 1.35,-3 3,-3zM5,17h12v38h-9c-1.65,0 -3,-1.35 -3,-3zM19,17h40v35c0,1.65 -1.35,3 -3,3h-37zM24,21c-0.55,0 -1,0.45 -1,1v8c0,0.55 0.45,1 1,1h30c0.55,0 1,-0.45 1,-1v-8c0,-0.55 -0.45,-1 -1,-1zM25,23h28v6h-28zM54,32.99023v0.00977h-17c-0.27,0 -0.52094,0.10906 -0.71094,0.28906c-0.19,0.19 -0.28906,0.45094 -0.28906,0.71094l0.10938,16c0,0.55 0.45,0.99023 1,0.99023h16.89063c0.55,0 1,-0.45 1,-1v-16c0,-0.55 -0.45,-1 -1,-1zM24,33c-0.27,0 -0.52094,0.10906 -0.71094,0.28906c-0.19,0.19 -0.28906,0.44094 -0.28906,0.71094l0.0293,16c0,0.55 0.45,1 1,1h8.9707c0.55,0 1,-0.45 1,-1v-16c0,-0.55 -0.45,-1 -1,-1zM25,35h7v14h-6.9707zM38.00977,35h14.99023v14h-14.90039z"></path></g></g></svg>