<svg xmlns="http://www.w3.org/2000/svg" xmlns:xlink="http://www.w3.org/1999/xlink" viewBox="0,0,256,256" width="24px" height="24px" fill-rule="nonzero"><g fill="#4d5d9d" fill-rule="nonzero" stroke="none" stroke-width="1" stroke-linecap="butt" stroke-linejoin="miter" stroke-miterlimit="10" stroke-dasharray="" stroke-dashoffset="0" font-family="none" font-weight="none" font-size="none" text-anchor="none" style="mix-blend-mode: normal"><g transform="scale(5.33333,5.33333)"><path d="M36,5.00977c-1.7947,0 -3.58921,0.68037 -4.94922,2.04102l-3.82031,3.82031c-0.13662,0.09665 -0.25611,0.21548 -0.35352,0.35156l-17.96094,17.96094c-0.41998,0.41998 -0.72756,0.94226 -0.89062,1.51563l-2.9668,10.38867c-0.14899,0.52347 -0.00278,1.08658 0.38208,1.47144c0.38485,0.38485 0.94796,0.53107 1.47144,0.38208l10.39062,-2.9668c0.00065,-0.00065 0.0013,-0.0013 0.00195,-0.00195c0.56952,-0.16372 1.09052,-0.46748 1.51172,-0.88867l17.92383,-17.92578c0.16745,-0.11096 0.31091,-0.25442 0.42188,-0.42187l3.78711,-3.78711c2.72113,-2.72112 2.72113,-7.17731 0,-9.89844c-1.36001,-1.36064 -3.15452,-2.04102 -4.94922,-2.04102zM36,7.99219c1.0208,0 2.04018,0.39333 2.82617,1.17969c0.00065,0 0.0013,0 0.00195,0c1.57487,1.57488 1.57487,4.08137 0,5.65625l-2.93945,2.93945l-5.65625,-5.65625l2.93945,-2.93945c0.78599,-0.78636 1.80732,-1.17969 2.82813,-1.17969zM28.11133,14.23242l5.65625,5.65625l-17.07422,17.07422c-0.05863,0.05823 -0.13289,0.10283 -0.2168,0.12695l-0.98437,0.28125l-4.86328,-4.86328l0.28125,-0.98633c0,-0.00065 0,-0.0013 0,-0.00195c0.02293,-0.08063 0.06493,-0.15282 0.12695,-0.21484zM9.68555,35.80664l2.50781,2.50781l-3.50977,1.00195z"></path></g></g></svg>