<svg xmlns="http://www.w3.org/2000/svg" xmlns:xlink="http://www.w3.org/1999/xlink" viewBox="0,0,256,256" width="16px" height="16px" fill-rule="nonzero"><g fill="#ccc" fill-rule="nonzero" stroke="none" stroke-width="1" stroke-linecap="butt" stroke-linejoin="miter" stroke-miterlimit="10" stroke-dasharray="" stroke-dashoffset="0" font-family="none" font-weight="none" font-size="none" text-anchor="none" style="mix-blend-mode: normal"><g transform="scale(10.66667,10.66667)"><path d="M12,4c-8,0 -11,8 -11,8c0,0 3,8 11,8c8,0 11,-8 11,-8c0,0 -3,-8 -11,-8zM12,6c5.276,0 7.94459,4.26709 8.80859,5.99609c-0.865,1.717 -3.55359,6.00391 -8.80859,6.00391c-5.276,0 -7.94459,-4.26709 -8.80859,-5.99609c0.866,-1.717 3.55359,-6.00391 8.80859,-6.00391zM12,8c-2.209,0 -4,1.791 -4,4c0,2.209 1.791,4 4,4c2.209,0 4,-1.791 4,-4c0,-2.209 -1.791,-4 -4,-4zM12,10c1.105,0 2,0.895 2,2c0,1.105 -0.895,2 -2,2c-1.105,0 -2,-0.895 -2,-2c0,-1.105 0.895,-2 2,-2z"></path></g></g></svg>