<svg xmlns="http://www.w3.org/2000/svg" xmlns:xlink="http://www.w3.org/1999/xlink" viewBox="0,0,256,256" width="16px" height="16px" fill-rule="nonzero"><g fill="#ccc" fill-rule="nonzero" stroke="none" stroke-width="1" stroke-linecap="butt" stroke-linejoin="miter" stroke-miterlimit="10" stroke-dasharray="" stroke-dashoffset="0" font-family="none" font-weight="none" font-size="none" text-anchor="none" style="mix-blend-mode: normal"><g transform="scale(10.66667,10.66667)"><path d="M3.70703,2.29297l-1.41406,1.41406l2.77539,2.77539c-0.53911,0.43949 -1.0198,0.90759 -1.44922,1.37695c-1.83,2.04 -2.61914,4.14063 -2.61914,4.14063c0,0 3,8 11,8c1.2,0 2.28953,-0.18023 3.26953,-0.49023c0.71911,-0.21973 1.37911,-0.5082 1.97852,-0.84766l3.04492,3.04492l1.41406,-1.41406zM12,4c-1.2,0 -2.28953,0.18023 -3.26953,0.49023l1.66016,1.66016c0.5,-0.1 1.03937,-0.15039 1.60938,-0.15039c5.28,0 7.94055,4.27 8.81055,6c-0.33,0.66 -0.93961,1.7007 -1.84961,2.7207l1.41992,1.41992c1.83,-2.04 2.61914,-4.14062 2.61914,-4.14062c0,0 -3,-8 -11,-8zM6.48828,7.90234l2.07031,2.07031c-0.35915,0.59947 -0.55859,1.28827 -0.55859,2.02734c0,0.08 -0.00023,0.17 0.00977,0.25c0.12,2.01 1.73023,3.62023 3.74023,3.74023c0.08,0.01 0.17,0.00977 0.25,0.00977c0.73907,0 1.42787,-0.19945 2.02734,-0.55859l1.73047,1.73047c-0.64941,0.30948 -1.36933,0.54788 -2.14844,0.67773c-0.51,0.1 -1.03937,0.15039 -1.60937,0.15039c-5.28,0 -7.94055,-4.27 -8.81055,-6c0.33,-0.66 0.92961,-1.7007 1.84961,-2.7207c0.40945,-0.46937 0.90011,-0.93746 1.44922,-1.37695zM12.25,8.00977l3.74023,3.74023c-0.12,-2.01 -1.73023,-3.62023 -3.74023,-3.74023zM10.07031,11.48438l2.44531,2.44531c-0.15911,0.04919 -0.33695,0.07031 -0.51562,0.07031c-1.1,0 -2,-0.9 -2,-2c0,-0.17867 0.02112,-0.35651 0.07031,-0.51562z"></path></g></g></svg>