<svg xmlns="http://www.w3.org/2000/svg" xmlns:xlink="http://www.w3.org/1999/xlink" viewBox="0,0,256,256" width="32px" height="32px" fill-rule="nonzero"><g fill="#707070" fill-rule="nonzero" stroke="none" stroke-width="1" stroke-linecap="butt" stroke-linejoin="miter" stroke-miterlimit="10" stroke-dasharray="" stroke-dashoffset="0" font-family="none" font-weight="none" font-size="none" text-anchor="none" style="mix-blend-mode: normal"><g transform="scale(0.5,0.5)"><path d="M73.08008,71c-27.60122,0.03141 -49.96859,22.39878 -50,50v270c0.03141,27.60122 22.39878,49.96859 50,50h365.96875c27.60122,-0.03141 49.96859,-22.39878 50,-50v-270c-0.03196,-27.60099 -22.39901,-49.96804 -50,-50zM73.08008,91h365.96875c16.56078,0.01874 29.98126,13.43922 30,30v197.1543l-59.83203,-84.77344c-9.27936,-13.14736 -24.31942,-21.02496 -40.41102,-21.16625c-16.0916,-0.1413 -31.26768,7.47098 -40.77648,20.45336l-68.09961,92.98047c-9.48055,12.99743 -27.53898,16.17696 -40.88867,7.19922l-50.91211,-34.07227c-16.72312,-11.21855 -38.54932,-11.29018 -55.34571,-0.18164l-69.69922,46.41797v-224.01172c0.01873,-16.55925 13.43684,-29.97911 29.99609,-30zM212.85742,127.06641c-18.42755,-0.76706 -36.37038,6.01731 -49.68042,18.78469c-13.31004,12.76737 -20.83499,30.41243 -20.8352,48.85593c0.04451,37.37155 30.32961,67.65578 67.70117,67.69922c36.82607,-0.02106 66.881,-29.47432 67.64665,-66.29244c0.76565,-36.81812 -28.03884,-67.49539 -64.8322,-69.0474zM210.04297,147c26.34393,0.00065 47.6994,21.35711 47.69883,47.70104c-0.00057,26.34393 -21.35698,47.69946 -47.70091,47.69896c-26.34393,-0.0005 -47.69952,-21.35685 -47.69909,-47.70078c0.03184,-26.33111 21.37006,-47.66846 47.70117,-47.69922zM367.20117,232.23242c10.15125,-0.39294 19.81172,4.37812 25.66992,12.67774l76.17188,107.92578v38.16406c-0.01983,16.55803 -13.43611,29.97694 -29.99414,30h-365.96875c-16.56078,-0.01874 -29.98126,-13.43922 -30,-30v-21.95312l80.74219,-53.77149c10.07327,-6.65027 23.15485,-6.60098 33.17773,0.125l50.91211,34.07227c22.25121,14.96175 52.34932,9.65828 68.14648,-12.00782l68.09961,-92.98242c5.40961,-7.38526 13.89524,-11.89635 23.04297,-12.25z"></path></g></g></svg>