<svg xmlns="http://www.w3.org/2000/svg" xmlns:xlink="http://www.w3.org/1999/xlink" viewBox="0,0,256,256" width="20px" height="20px" fill-rule="nonzero"><g fill="#ffffff" fill-rule="nonzero" stroke="none" stroke-width="1" stroke-linecap="butt" stroke-linejoin="miter" stroke-miterlimit="10" stroke-dasharray="" stroke-dashoffset="0" font-family="none" font-weight="none" font-size="none" text-anchor="none" style="mix-blend-mode: normal"><g transform="scale(8.53333,8.53333)"><path d="M9,4c-1.16667,0 -2.67017,0.2645 -3.94531,0.51953c-1.27514,0.25503 -2.29687,0.50977 -2.29687,0.50977c-0.44549,0.11124 -0.75799,0.51154 -0.75781,0.9707v1.27734c-0.59563,0.34627 -1,0.98371 -1,1.72266v15c0,1.105 0.895,2 2,2h10.27148c0.35663,0.61771 1.01525,0.99874 1.72852,1c0.71397,-0.00056 1.37349,-0.38169 1.73047,-1h10.26953c1.105,0 2,-0.895 2,-2v-15c0,-0.73895 -0.40437,-1.37639 -1,-1.72266v-1.27734c0.00018,-0.45917 -0.31232,-0.85946 -0.75781,-0.9707c0,0 -1.02173,-0.25474 -2.29688,-0.50977c-1.27514,-0.25503 -2.77865,-0.51953 -3.94531,-0.51953c-1.16667,0 -2.67017,0.2645 -3.94531,0.51953c-1.14058,0.22812 -1.86953,0.40941 -2.05469,0.45508c-0.18516,-0.04567 -0.91411,-0.22696 -2.05469,-0.45508c-1.27514,-0.25503 -2.77864,-0.51953 -3.94531,-0.51953zM9,6c0.83333,0 2.32983,0.2355 3.55469,0.48047c0.80362,0.16072 1.06063,0.23064 1.44531,0.32227v15.95117c-0.35069,-0.08041 -0.46913,-0.11726 -1.05469,-0.23437c-1.27514,-0.25503 -2.77864,-0.51953 -3.94531,-0.51953c-1.16667,0 -2.67017,0.2645 -3.94531,0.51953c-0.58556,0.11711 -0.65051,0.14187 -1.05469,0.23438v-15.95117c0.38482,-0.09143 0.64169,-0.16154 1.44531,-0.32227c1.22486,-0.24497 2.72135,-0.48047 3.55469,-0.48047zM21,6c0.83333,0 2.32983,0.2355 3.55469,0.48047c0.80362,0.16072 1.06049,0.23084 1.44531,0.32227v15.95117c-0.40418,-0.0925 -0.46913,-0.11726 -1.05469,-0.23437c-1.27514,-0.25503 -2.77865,-0.51953 -3.94531,-0.51953c-1.16667,0 -2.67017,0.2645 -3.94531,0.51953c-0.58556,0.11711 -0.70399,0.15396 -1.05469,0.23438v-15.95117c0.38469,-0.09163 0.64169,-0.16154 1.44531,-0.32227c1.22486,-0.24497 2.72135,-0.48047 3.55469,-0.48047zM20,8v1.11914c-1.385,0.308 -2.25391,1.24364 -2.25391,2.55664c0,1.305 0.76617,2.11736 2.32617,2.44336l1.11523,0.23828c1.05,0.226 1.47656,0.53994 1.47656,1.08594c0,0.647 -0.65884,1.09766 -1.58984,1.09766c-1.009,0 -1.70997,-0.44467 -1.79297,-1.13867h-1.73047c0.054,1.321 0.97822,2.224 2.44922,2.5v1.09766h2v-1.10156c1.532,-0.291 2.44922,-1.24969 2.44922,-2.67969c0,-1.328 -0.73994,-2.07159 -2.46094,-2.43359l-1.0332,-0.21875c-1.003,-0.213 -1.41016,-0.51692 -1.41016,-1.04492c0,-0.653 0.59228,-1.06836 1.48828,-1.06836c0.866,0 1.49512,0.45095 1.57813,1.12695h1.68555c-0.044,-1.243 -0.94687,-2.16284 -2.29687,-2.46484v-1.11523zM7,9c-0.55228,0 -1,0.44772 -1,1c0,0.55228 0.44772,1 1,1c0.55228,0 1,-0.44772 1,-1c0,-0.55228 -0.44772,-1 -1,-1zM11,9c-0.55228,0 -1,0.44772 -1,1c0,0.55228 0.44772,1 1,1c0.55228,0 1,-0.44772 1,-1c0,-0.55228 -0.44772,-1 -1,-1zM7,13c-0.55228,0 -1,0.44772 -1,1c0,0.55228 0.44772,1 1,1c0.55228,0 1,-0.44772 1,-1c0,-0.55228 -0.44772,-1 -1,-1zM11,13c-0.55228,0 -1,0.44772 -1,1c0,0.55228 0.44772,1 1,1c0.55228,0 1,-0.44772 1,-1c0,-0.55228 -0.44772,-1 -1,-1zM7,17c-0.55228,0 -1,0.44772 -1,1c0,0.55228 0.44772,1 1,1c0.55228,0 1,-0.44772 1,-1c0,-0.55228 -0.44772,-1 -1,-1z"></path></g></g></svg>