<?xml version="1.0" ?>

<!DOCTYPE svg  PUBLIC '-//W3C//DTD SVG 1.1//EN'  'http://www.w3.org/Graphics/SVG/1.1/DTD/svg11.dtd'>

<!-- Uploaded to: SVG Repo, www.svgrepo.com, Generator: SVG Repo Mixer Tools -->
<svg fill="#000000" width="800px" height="800px" viewBox="0 0 32 32" style="fill-rule:evenodd;clip-rule:evenodd;stroke-linejoin:round;stroke-miterlimit:2;" version="1.1" xml:space="preserve" xmlns="http://www.w3.org/2000/svg" xmlns:serif="http://www.serif.com/" xmlns:xlink="http://www.w3.org/1999/xlink">

<g transform="matrix(1,0,0,1,0,-48)">

<g transform="matrix(1,0,0,1.05263,0,-3.89474)">

<path d="M29,56.9C29,56.396 28.789,55.913 28.414,55.557C28.039,55.2 27.53,55 27,55C22.157,55 9.843,55 5,55C4.47,55 3.961,55.2 3.586,55.557C3.211,55.913 3,56.396 3,56.9C3,60.54 3,68.46 3,72.1C3,72.604 3.211,73.087 3.586,73.443C3.961,73.8 4.47,74 5,74C9.843,74 22.157,74 27,74C27.53,74 28.039,73.8 28.414,73.443C28.789,73.087 29,72.604 29,72.1C29,68.46 29,60.54 29,56.9Z" style="fill:#fff;"/>

</g>

<path d="M2,56L2,72C2,72.796 2.316,73.559 2.879,74.121C3.441,74.684 4.204,75 5,75L27,75C27.796,75 28.559,74.684 29.121,74.121C29.684,73.559 30,72.796 30,72L30,56C30,55.204 29.684,54.441 29.121,53.879C28.559,53.316 27.796,53 27,53L5,53C4.204,53 3.441,53.316 2.879,53.879C2.316,54.441 2,55.204 2,56ZM28,61L28,72C28,72.265 27.895,72.52 27.707,72.707C27.52,72.895 27.265,73 27,73C27,73 5,73 5,73C4.735,73 4.48,72.895 4.293,72.707C4.105,72.52 4,72.265 4,72L4,61L28,61ZM7,71L8,71C8.552,71 9,70.552 9,70C9,69.448 8.552,69 8,69L7,69C6.448,69 6,69.448 6,70C6,70.552 6.448,71 7,71ZM11,71L12,71C12.552,71 13,70.552 13,70C13,69.448 12.552,69 12,69L11,69C10.448,69 10,69.448 10,70C10,70.552 10.448,71 11,71ZM28,59L4,59L4,56C4,55.735 4.105,55.48 4.293,55.293C4.48,55.105 4.735,55 5,55C5,55 27,55 27,55C27.265,55 27.52,55.105 27.707,55.293C27.895,55.48 28,55.735 28,56L28,59Z" style="fill:#20A64F;"/>

</g>

</svg>