<svg xmlns="http://www.w3.org/2000/svg" xmlns:xlink="http://www.w3.org/1999/xlink" viewBox="0,0,256,256" width="20px" height="20px" fill-rule="nonzero"><g fill="#ffffff" fill-rule="nonzero" stroke="none" stroke-width="1" stroke-linecap="butt" stroke-linejoin="miter" stroke-miterlimit="10" stroke-dasharray="" stroke-dashoffset="0" font-family="none" font-weight="none" font-size="none" text-anchor="none" style="mix-blend-mode: normal"><g transform="scale(5.12,5.12)"><path d="M26.90625,5c-8.86719,0 -12.16016,6.85156 -9.625,12.65625c-0.31641,0.21094 -0.82422,0.87109 -0.71875,2.03125c0.21094,2.10938 1.16016,2.61328 1.6875,2.71875c0.21094,2.00391 1.48047,4.33984 2.21875,4.65625c0,1.37109 -0.01953,2.51953 -0.125,4c-1.61719,4.24609 -11.95312,3.26172 -13.28125,10.875c-0.05859,0.33203 0.28516,1.0625 0.96875,1.0625h33.96875c1.01563,0 0.99609,-0.75 0.9375,-1.09375c-1.35156,-7.58203 -11.66406,-6.60156 -13.28125,-10.84375c-0.10547,-1.58594 -0.125,-2.62891 -0.125,-4c0.73828,-0.31641 1.91406,-2.75781 2.125,-4.65625c0.52734,0 1.37109,-0.63672 1.6875,-2.75c0.10547,-1.16016 -0.32812,-1.89453 -0.75,-2c1.6875,-2.10937 1.38281,-10.75 -4.84375,-10.75zM15.15625,10c-6.67578,0.11328 -9.60156,5.42578 -7.59375,9.96875c-0.21484,0.10547 -0.63672,0.66406 -0.53125,1.625c0.21484,1.71094 0.85156,2.125 1.28125,2.125c0.21094,1.60156 1.15625,3.39844 1.6875,3.71875c0,1.06641 0.01172,1.03516 -0.09375,2.3125c-0.86719,2.73438 -9.90625,2.53125 -9.90625,9.25c0,0 0,1 1,1h4.53125c1.52734,-4.32031 5.67969,-5.98437 8.8125,-7.21875c1.72656,-0.67969 3.49609,-1.36719 4.03125,-2.21875c0.05859,-0.92969 0.08984,-1.71875 0.09375,-2.59375c-0.94922,-1.08594 -1.65625,-2.77734 -2,-4.21875c-0.8125,-0.60156 -1.69141,-1.75781 -1.90625,-3.90625c-0.09375,-1.01953 0.12109,-1.86719 0.46875,-2.53125c-0.79297,-2.46484 -0.74219,-5.03906 0.125,-7.3125zM38,10c-0.95703,0 -2.08594,0.07813 -3.15625,0.25c0.80078,2.34766 0.83203,5.15234 0.125,7.15625c0.3125,0.6875 0.45703,1.52344 0.375,2.4375l-0.03125,0.0625v0.0625c-0.29687,1.96484 -1.01953,3.16016 -1.875,3.8125c-0.32422,1.35156 -0.98437,3.05859 -1.90625,4.15625c0.00391,0.85938 0.03516,1.63281 0.09375,2.625c0.53516,0.85156 2.30859,1.53906 4.03125,2.21875c3.12891,1.23047 7.28125,2.89844 8.8125,7.21875h4.53125c1,0 1,-0.96875 1,-0.96875c0.00391,-7.73437 -8.55859,-5.90234 -9.84375,-9.4375c-0.10937,-1.17969 -0.125,-1.07031 -0.125,-2.25c0.53516,-0.32031 1.51953,-2.12109 1.625,-3.625c0.42969,0 1.06641,-0.44141 1.28125,-2.15625c0.10547,-0.85547 -0.21094,-1.48828 -0.53125,-1.59375c1.28906,-1.71484 1.07813,-8.46875 -3.75,-8.46875z"></path></g></g></svg>