<svg xmlns="http://www.w3.org/2000/svg" xmlns:xlink="http://www.w3.org/1999/xlink" viewBox="0,0,256,256" width="100px" height="100px" fill-rule="nonzero"><g fill-opacity="0.85882" fill="#ffffff" fill-rule="nonzero" stroke="none" stroke-width="1" stroke-linecap="butt" stroke-linejoin="miter" stroke-miterlimit="10" stroke-dasharray="" stroke-dashoffset="0" font-family="none" font-weight="none" font-size="none" text-anchor="none" style="mix-blend-mode: normal"><g transform="scale(5.12,5.12)"><path d="M4,4v1v13h14v-14zM32,4v1v13h14v-14zM6,6h10v10h-10zM20,6v1v5h4v3h-4v1v4h-9v1v3h-4v1v5h6v-4h3v4h6v-8h2v4h7v3h5v3h-8v1v3h-4v1v5h6v-4h6v8h10v-10h-8v-2h8v-10h-6v1v2h-2v-7h-12v-3h4v-7h-4v-4zM34,6h10v10h-10zM8,8v1v5h6v-6zM22,8h2v2h-2zM36,8v1v5h6v-6zM10,10h2v2h-2zM38,10h2v2h-2zM26,12h2v3h-2zM22,17h2v3h-2zM13,22h7v6h-2v-4h-5zM26,22h10v5h-3v-3h-7zM9,26h2v2h-2zM42,26h2v6h-6v-3h4zM4,32v1v13h14v-14zM6,34h10v10h-10zM30,34h6v2h-6zM8,36v1v5h6v-6zM10,38h2v2h-2zM26,38h2v2h-2zM38,38h6v6h-6z"></path></g></g></svg>