<svg xmlns="http://www.w3.org/2000/svg" xmlns:xlink="http://www.w3.org/1999/xlink" viewBox="0,0,256,256" width="32px" height="32px" fill-rule="nonzero"><g fill="#ffffff" fill-rule="nonzero" stroke="none" stroke-width="1" stroke-linecap="butt" stroke-linejoin="miter" stroke-miterlimit="10" stroke-dasharray="" stroke-dashoffset="0" font-family="none" font-weight="none" font-size="none" text-anchor="none" style="mix-blend-mode: normal"><g transform="scale(10.66667,10.66667)"><path d="M4,4h4v4h-4zM16,4h4v4h-4zM4,16h4v4h-4z" opacity="0.3"></path><path d="M20,3h-4c-0.552,0 -1,0.448 -1,1v4c0,0.552 0.448,1 1,1h4c0.552,0 1,-0.448 1,-1v-4c0,-0.552 -0.448,-1 -1,-1zM19,7h-2v-2h2zM8,3h-4c-0.552,0 -1,0.448 -1,1v4c0,0.552 0.448,1 1,1h4c0.552,0 1,-0.448 1,-1v-4c0,-0.552 -0.448,-1 -1,-1zM7,7h-2v-2h2zM8,15h-4c-0.552,0 -1,0.448 -1,1v4c0,0.552 0.448,1 1,1h4c0.552,0 1,-0.448 1,-1v-4c0,-0.552 -0.448,-1 -1,-1zM7,19h-2v-2h2zM11,3h2v2h-2zM11,7h2v2h-2zM15,11h2v2h-2zM11,11h2v2h-2zM7,11h2v2h-2zM3,11h2v2h-2zM13,13h2v2h-2zM17,13h2v2h-2zM19,11h2v2h-2zM19,15h2v2h-2zM15,15h2v2h-2zM11,15h2v2h-2zM13,17h2v2h-2zM17,17h2v2h-2zM15,19h2v2h-2zM11,19h2v2h-2zM19,19h2v2h-2z"></path></g></g></svg>