<svg width="229" height="223" viewBox="0 0 229 223" fill="#fff" xmlns="http://www.w3.org/2000/svg">
<path d="M25.2829 48.7867C9.06248 54.8005 1.12601 73.9909 7.61786 91.5008L45.9202 194.811C52.4121 212.321 70.9405 221.699 87.161 215.685L208.802 170.586C221.112 166.023 227.143 151.433 222.218 138.148L212.44 111.776C211.069 108.077 209.228 105.098 207.163 102.581C207.122 99.4198 206.614 96.062 205.292 92.4954L194.846 64.3186C189.919 51.0302 175.837 43.9045 163.529 48.4735L55.3653 88.5753C51.2008 90.1193 46.5839 87.7793 44.9185 83.2875L44.8507 83.1046C43.184 78.6091 45.1645 73.8273 49.3255 72.2846L123.293 44.861C123.795 44.6834 124.254 44.3998 124.644 44.0267C125.033 43.6536 125.344 43.1985 125.56 42.6879C125.775 42.1772 125.89 41.6211 125.899 41.0519C125.907 40.4827 125.808 39.9118 125.608 39.3723C125.408 38.8329 125.111 38.3356 124.733 37.9094C124.356 37.4833 123.906 37.1367 123.41 36.8899C122.914 36.6431 122.381 36.5009 121.843 36.4717C121.304 36.4424 120.771 36.5267 120.274 36.7196L46.3071 64.1432C38.0693 67.1974 34.0103 77.0038 37.3089 85.9008L37.3767 86.0836C40.6737 94.9763 50.142 99.7724 58.3838 96.7167L166.547 56.6149C174.779 53.559 184.008 58.2259 187.304 67.1147L197.75 95.2915C197.813 95.4617 197.795 95.5829 197.854 95.7507C194.503 94.3742 191.088 93.6324 187.924 94.1415C183.593 94.8384 179.717 97.0766 177.269 100.696C174.822 104.316 174.092 109.48 175.955 114.505C177.766 119.389 181.746 122.655 185.912 123.601C190.077 124.546 194.36 123.571 198.031 121.242C200.692 119.553 202.778 116.816 204.43 113.669C204.573 114.019 204.761 114.202 204.899 114.572L214.676 140.944C217.97 149.828 214.018 159.392 205.784 162.445L84.1425 207.544C71.9982 212.046 58.3226 205.124 53.4621 192.014L15.1597 88.7047C10.2992 75.5948 16.157 61.4307 28.3013 56.9281L142.747 14.4971C148.703 12.2889 155.358 15.6575 157.742 22.0869L162.511 34.9509C162.704 35.493 162.995 35.9943 163.367 36.4258C163.739 36.8573 164.184 37.2103 164.678 37.4644C165.171 37.7184 165.702 37.8685 166.24 37.9058C166.779 37.943 167.313 37.8668 167.813 37.6815C168.313 37.4963 168.768 37.2056 169.151 36.8265C169.535 36.4473 169.84 35.9873 170.049 35.4731C170.257 34.9588 170.365 34.4007 170.366 33.831C170.366 33.2614 170.26 32.6916 170.053 32.1548L165.284 19.2908C161.268 8.46041 149.761 2.63603 139.729 6.3557L25.2829 48.7867ZM187.757 103.111C188.314 102.907 188.907 102.753 189.53 102.653C192.419 102.188 195.773 102.985 198.873 105.574C198.162 109.421 196.131 112.2 193.605 113.803C191.423 115.188 188.989 115.587 187.233 115.189C185.477 114.79 184.345 113.997 183.497 111.709C182.542 109.135 182.897 107.493 183.952 105.933C184.743 104.763 186.085 103.725 187.757 103.111Z" stroke="white" stroke-opacity="0.2" stroke-width="9"/>
</svg>
