<svg xmlns="http://www.w3.org/2000/svg" xmlns:xlink="http://www.w3.org/1999/xlink" viewBox="0,0,256,256" width="34px" height="32px" fill-rule="nonzero"><g fill="#000" fill-rule="nonzero" stroke="none" stroke-width="1" stroke-linecap="butt" stroke-linejoin="miter" stroke-miterlimit="10" stroke-dasharray="" stroke-dashoffset="0" font-family="none" font-weight="none" font-size="none" text-anchor="none" style="mix-blend-mode: normal"><g transform="scale(5.33333,5.33333)"><path d="M25.5,5c-4.694,0 -8.5,3.806 -8.5,8.5c0,4.694 3.806,8.5 8.5,8.5c4.694,0 8.5,-3.806 8.5,-8.5c0,-4.694 -3.806,-8.5 -8.5,-8.5zM11.5332,5.99414c-0.75048,-0.02819 -1.40616,0.50291 -1.53443,1.24289c-0.12826,0.73997 0.31043,1.46077 1.02661,1.6868l3,1c0.50871,0.16966 1.06929,0.05501 1.47054,-0.30076c0.40125,-0.35577 0.58219,-0.89859 0.47465,-1.42396c-0.10754,-0.52536 -0.48721,-0.95344 -0.99597,-1.12294l-3,-1c-0.14219,-0.04933 -0.29099,-0.07698 -0.44141,-0.08203zM39.57031,5.99414c-0.18515,-0.00654 -0.3699,0.02127 -0.54492,0.08203l-3,1c-0.50876,0.1695 -0.88844,0.59757 -0.99597,1.12294c-0.10754,0.52536 0.0734,1.06819 0.47465,1.42396c0.40125,0.35577 0.96183,0.47042 1.47054,0.30076l3,-1c0.697,-0.22046 1.1336,-0.91122 1.03367,-1.63539c-0.09994,-0.72417 -0.70731,-1.27086 -1.43796,-1.2943zM26.41602,7.95117c0.23489,-0.02016 0.47342,0.04455 0.66992,0.18555c0.261,0.188 0.41602,0.4905 0.41602,0.8125v9.05078h-0.00195c0,0.553 -0.448,1 -1,1c-0.552,0 -1,-0.447 -1,-1v-7.66406l-1.68359,0.56055c-0.527,0.177 -1.09062,-0.10686 -1.26562,-0.63086c-0.175,-0.525 0.10881,-1.09163 0.63281,-1.26562l3,-1c0.07625,-0.026 0.15413,-0.04211 0.23242,-0.04883zM10.5,12c-0.54095,-0.00765 -1.04412,0.27656 -1.31683,0.74381c-0.27271,0.46725 -0.27271,1.04514 0,1.51238c0.27271,0.46725 0.77588,0.75146 1.31683,0.74381h3c0.54095,0.00765 1.04412,-0.27656 1.31683,-0.74381c0.27271,-0.46725 0.27271,-1.04514 0,-1.51238c-0.27271,-0.46725 -0.77588,-0.75146 -1.31683,-0.74381zM37.5,12c-0.54095,-0.00765 -1.04412,0.27656 -1.31683,0.74381c-0.27271,0.46725 -0.27271,1.04514 0,1.51238c0.27271,0.46725 0.77588,0.75146 1.31683,0.74381h3c0.54095,0.00765 1.04412,-0.27656 1.31683,-0.74381c0.27271,-0.46725 0.27271,-1.04514 0,-1.51238c-0.27271,-0.46725 -0.77588,-0.75146 -1.31683,-0.74381zM14.57031,16.99414c-0.18515,-0.00654 -0.3699,0.02127 -0.54492,0.08203l-3,1c-0.50875,0.16951 -0.88841,0.59758 -0.99594,1.12294c-0.10753,0.52536 0.07341,1.06817 0.47465,1.42394c0.40124,0.35577 0.96181,0.47043 1.47052,0.30078l3,-1c0.697,-0.22046 1.1336,-0.91122 1.03366,-1.63539c-0.09994,-0.72417 -0.70731,-1.27086 -1.43796,-1.2943zM36.5332,16.99414c-0.75048,-0.02819 -1.40616,0.50291 -1.53442,1.24289c-0.12826,0.73997 0.31043,1.46077 1.02661,1.6868l3,1c0.50871,0.16964 1.06928,0.05498 1.47052,-0.30078c0.40124,-0.35577 0.58218,-0.89858 0.47465,-1.42394c-0.10753,-0.52536 -0.48719,-0.95343 -0.99594,-1.12294l-3,-1c-0.14219,-0.04933 -0.29099,-0.07698 -0.44141,-0.08203zM41.61328,22.01758c-1.12007,0.0098 -2.18426,0.4545 -3.12891,1.15625c-0.00065,0 -0.0013,0 -0.00195,0c-1.0113,0.75244 -4.06359,3.0333 -6.70508,5.00586c-0.57272,-1.82818 -2.27142,-3.17969 -4.27734,-3.17969h-4.39258c-2.81122,0 -4.12373,-0.22778 -5.25,-0.4668c-1.12627,-0.23902 -2.21109,-0.5332 -4.03125,-0.5332c-3.88478,0 -6.81384,2.49299 -8.73242,4.79102c-1.91858,2.29803 -2.95898,4.59375 -2.95898,4.59375c-0.22239,0.48778 -0.16762,1.05715 0.14367,1.49359c0.3113,0.43644 0.83181,0.67361 1.36542,0.62215c0.53361,-0.05146 0.99921,-0.38372 1.22138,-0.8716c0,0 0.89908,-1.95909 2.53125,-3.91406c1.63217,-1.95497 3.86347,-3.71484 6.42969,-3.71484c1.52084,0 2.17847,0.20582 3.4082,0.4668c1.22973,0.26098 2.88927,0.5332 5.87305,0.5332h4.39258c0.8465,0 1.5,0.6535 1.5,1.5c0,0.4695 -0.20581,0.8743 -0.5293,1.14648c-0.00029,0.00022 -0.04102,0.03125 -0.04102,0.03125c-0.02884,0.02241 -0.05686,0.04586 -0.08398,0.07031c-0.00065,0.00065 -0.0013,0.0013 -0.00195,0.00195c-0.23845,0.15861 -0.52728,0.25 -0.84375,0.25h-7c-0.54095,-0.00765 -1.04412,0.27656 -1.31683,0.74381c-0.27271,0.46725 -0.27271,1.04514 0,1.51238c0.27271,0.46725 0.77588,0.75146 1.31683,0.74381h7c0.94064,0 1.81531,-0.29855 2.54102,-0.80078c0.00117,-0.00081 0.00274,-0.00114 0.00391,-0.00195c0.06256,-0.0341 0.1226,-0.07261 0.17969,-0.11523c0,0 8.54896,-6.38405 10.04883,-7.5c0.56436,-0.41925 1.03406,-0.56154 1.36523,-0.56445c0.33118,-0.0029 0.57917,0.07917 0.92188,0.42188c0.5914,0.5914 0.58784,1.49419 0.01172,2.09375c-5.35513,4.50299 -8.7238,7.50368 -10.94922,9.26172c-2.25312,1.77996 -3.19805,2.20508 -4.12305,2.20508c-3.65318,0 -7.70027,-1 -12,-1c-2.5,0 -4.25722,1.34361 -5.19922,2.59961c-0.942,1.256 -1.25586,2.53711 -1.25586,2.53711c-0.14413,0.52487 0.00735,1.08663 0.39581,1.46788c0.38846,0.38126 0.95296,0.52219 1.47504,0.36826c0.52208,-0.15393 0.91982,-0.57857 1.03931,-1.10959c0,0 0.18614,-0.71889 0.74414,-1.46289c0.558,-0.744 1.30078,-1.40039 2.80078,-1.40039c3.80627,0 7.83518,1 12,1c1.902,0 3.58484,-0.95556 5.98242,-2.84961c2.36779,-1.87051 5.69314,-4.84098 11.01758,-9.31836c0.0644,-0.04529 0.12513,-0.09557 0.18164,-0.15039c0.0069,-0.0069 0.00879,-0.0165 0.01563,-0.02344l0.00391,0.00391l0.05273,-0.05469c0.14636,-0.1525 0.25884,-0.3342 0.33008,-0.5332c1.24576,-1.75262 1.16397,-4.1915 -0.40234,-5.75781c-0.8293,-0.82929 -1.94829,-1.30867 -3.06836,-1.29883z"></path></g></g></svg>