<svg xmlns="http://www.w3.org/2000/svg" xmlns:xlink="http://www.w3.org/1999/xlink" viewBox="0,0,256,256" width="20px" height="20px" fill-rule="nonzero"><g fill="#707070" fill-rule="nonzero" stroke="none" stroke-width="1" stroke-linecap="butt" stroke-linejoin="miter" stroke-miterlimit="10" stroke-dasharray="" stroke-dashoffset="0" font-family="none" font-weight="none" font-size="none" text-anchor="none" style="mix-blend-mode: normal"><g transform="scale(8.53333,8.53333)"><path d="M19.7793,1c-0.255,0 -0.47005,0.19231 -0.49805,0.44531l-0.04102,0.37891c-0.047,0.423 -0.35748,0.76528 -0.77148,0.86328c-0.103,0.025 -0.20759,0.05008 -0.30859,0.08008c-0.406,0.118 -0.8418,-0.02228 -1.0918,-0.36328l-0.22461,-0.30469c-0.151,-0.205 -0.43134,-0.26372 -0.65234,-0.13672l-0.38281,0.2207c-0.221,0.127 -0.31098,0.39981 -0.20899,0.63281l0.15625,0.35352c0.17,0.388 0.07263,0.83691 -0.23437,1.12891c-0.076,0.072 -0.14966,0.14666 -0.22266,0.22266c-0.293,0.307 -0.74186,0.40537 -1.13086,0.23438l-0.35352,-0.1543c-0.233,-0.102 -0.50581,-0.01397 -0.63281,0.20703l-0.2207,0.38281c-0.127,0.221 -0.06828,0.5033 0.13672,0.6543l0.30469,0.22461c0.341,0.25 0.48128,0.6858 0.36328,1.0918c-0.029,0.101 -0.05508,0.20364 -0.08008,0.30664c-0.098,0.414 -0.44028,0.72448 -0.86328,0.77148l-0.37891,0.04297c-0.252,0.027 -0.44336,0.24109 -0.44336,0.49609v0.44141c0,0.255 0.19231,0.47005 0.44531,0.49805l0.37891,0.04102c0.423,0.047 0.76333,0.35748 0.86133,0.77148c0.025,0.103 0.05203,0.20759 0.08203,0.30859c0.118,0.406 -0.02228,0.8418 -0.36328,1.0918l-0.30664,0.22461c-0.205,0.151 -0.26372,0.43134 -0.13672,0.65234l0.2207,0.38281c0.127,0.221 0.40176,0.31098 0.63476,0.20899l0.35352,-0.15625c0.388,-0.17 0.83691,-0.07263 1.12891,0.23438c0.072,0.076 0.14666,0.14966 0.22266,0.22266c0.307,0.293 0.40538,0.74186 0.23438,1.13086l-0.15625,0.35352c-0.102,0.233 -0.01201,0.50481 0.20899,0.63281l0.38281,0.2207c0.221,0.127 0.50134,0.06828 0.65234,-0.13672l0.22461,-0.30469c0.25,-0.341 0.6858,-0.48128 1.0918,-0.36328c0.101,0.029 0.20559,0.05508 0.30859,0.08008c0.414,0.098 0.72448,0.44028 0.77148,0.86328l0.04102,0.37891c0.028,0.252 0.24305,0.44336 0.49805,0.44336h0.44141c0.255,0 0.47005,-0.19231 0.49805,-0.44531l0.04102,-0.37891c0.047,-0.423 0.35748,-0.76333 0.77148,-0.86133c0.103,-0.025 0.20759,-0.05303 0.30859,-0.08203c0.406,-0.118 0.8418,0.02228 1.0918,0.36328l0.22461,0.30664c0.151,0.205 0.43134,0.26372 0.65234,0.13672l0.38281,-0.2207c0.221,-0.127 0.31098,-0.40176 0.20898,-0.63476l-0.15625,-0.35352c-0.17,-0.388 -0.07262,-0.83591 0.23438,-1.12891c0.076,-0.072 0.14966,-0.14666 0.22266,-0.22266c0.293,-0.307 0.74091,-0.40538 1.12891,-0.23437l0.35352,0.1543c0.233,0.102 0.50677,0.01397 0.63477,-0.20703l0.2207,-0.38281c0.127,-0.221 0.06828,-0.5033 -0.13672,-0.6543l-0.30664,-0.22461c-0.341,-0.25 -0.48128,-0.6858 -0.36328,-1.0918c0.029,-0.101 0.05703,-0.20364 0.08203,-0.30664c0.098,-0.414 0.43833,-0.72448 0.86133,-0.77148l0.38086,-0.04297c0.252,-0.027 0.44336,-0.24109 0.44336,-0.49609v-0.44141c0,-0.255 -0.19231,-0.47005 -0.44531,-0.49805l-0.37891,-0.04102c-0.423,-0.047 -0.76528,-0.35748 -0.86328,-0.77148c-0.025,-0.103 -0.05008,-0.20759 -0.08008,-0.30859c-0.118,-0.406 0.02228,-0.8418 0.36328,-1.0918l0.30469,-0.22461c0.205,-0.151 0.26372,-0.43134 0.13672,-0.65234l-0.2207,-0.38281c-0.127,-0.221 -0.39981,-0.31098 -0.63281,-0.20898l-0.35352,0.15625c-0.388,0.17 -0.83786,0.07262 -1.13086,-0.23437c-0.072,-0.076 -0.14666,-0.14966 -0.22266,-0.22266c-0.307,-0.293 -0.40537,-0.74091 -0.23437,-1.12891l0.15625,-0.35352c0.102,-0.233 0.01202,-0.50677 -0.20898,-0.63477l-0.38281,-0.2207c-0.221,-0.127 -0.50134,-0.06828 -0.65234,0.13672l-0.22461,0.30664c-0.25,0.341 -0.6858,0.48128 -1.0918,0.36328c-0.101,-0.029 -0.20559,-0.05703 -0.30859,-0.08203c-0.414,-0.098 -0.72448,-0.43833 -0.77148,-0.86133l-0.04102,-0.37891c-0.026,-0.253 -0.24109,-0.44531 -0.49609,-0.44531zM20,5c2.209,0 4,1.791 4,4c0,2.209 -1.791,4 -4,4c-2.209,0 -4,-1.791 -4,-4c0,-2.209 1.791,-4 4,-4zM20,7c-1.105,0 -2,0.895 -2,2c0,1.105 0.895,2 2,2c1.105,0 2,-0.895 2,-2c0,-1.105 -0.895,-2 -2,-2zM8,15c-0.38282,0.00032 -0.76203,0.07391 -1.11719,0.2168l-4.88281,1.7832v8l4.2207,-1.83398c0.498,-0.216 1.06145,-0.22358 1.56445,-0.01758l9.06445,3.70312c0,0 0.00389,0 0.00391,0c0.20172,0.0971 0.42261,0.14782 0.64648,0.14844c0.259,-0.00091 0.51334,-0.06888 0.73828,-0.19727c0.00013,-0.00004 0.00578,0.00004 0.00586,0l8.98633,-4.99219l-0.00195,-0.00195c0.47535,-0.26411 0.77054,-0.7648 0.77148,-1.30859c0,-0.82843 -0.67157,-1.5 -1.5,-1.5c-0.22028,0.00084 -0.43767,0.05019 -0.63672,0.14453v-0.00195l-6.86328,2.85742h-1.5c0.82843,0 1.5,-0.67157 1.5,-1.5c-0.00016,-0.64919 -0.41792,-1.2246 -1.03516,-1.42578v-0.00195l-8.69336,-3.79102h-0.01172c-0.39454,-0.18405 -0.82441,-0.28002 -1.25977,-0.28125z"></path></g></g></svg>