<svg xmlns="http://www.w3.org/2000/svg" xmlns:xlink="http://www.w3.org/1999/xlink" viewBox="0,0,256,256" width="32px" height="32px" fill-rule="nonzero"><g fill="#ffffff" fill-rule="nonzero" stroke="none" stroke-width="1" stroke-linecap="butt" stroke-linejoin="miter" stroke-miterlimit="10" stroke-dasharray="" stroke-dashoffset="0" font-family="none" font-weight="none" font-size="none" text-anchor="none" style="mix-blend-mode: normal"><g transform="scale(10.66667,10.66667)"><path d="M14.377,1.972c-0.068,-0.143 -0.2,-0.245 -0.356,-0.276c-1.334,-0.261 -2.708,-0.261 -4.042,0c-0.156,0.031 -0.288,0.133 -0.356,0.276l-1.108,2.332c-0.505,0.229 -0.987,0.507 -1.438,0.83c0.001,0 -2.573,-0.206 -2.573,-0.206c-0.158,-0.013 -0.312,0.05 -0.416,0.17c-0.895,1.025 -1.581,2.214 -2.022,3.501c-0.051,0.15 -0.028,0.315 0.061,0.446l1.466,2.126c-0.055,0.551 -0.055,1.107 0,1.659c0,-0.001 -1.466,2.125 -1.466,2.125c-0.089,0.131 -0.112,0.296 -0.061,0.446c0.441,1.287 1.127,2.476 2.022,3.501c0.104,0.12 0.258,0.183 0.416,0.17l2.574,-0.206c0.451,0.323 0.932,0.601 1.438,0.83c-0.001,0 1.107,2.332 1.107,2.332c0.068,0.143 0.2,0.245 0.356,0.276c1.334,0.261 2.708,0.261 4.042,0c0.156,-0.031 0.288,-0.133 0.356,-0.276l1.108,-2.332c0.505,-0.229 0.987,-0.507 1.438,-0.83c-0.001,0 2.573,0.206 2.573,0.206c0.158,0.013 0.312,-0.05 0.416,-0.17c0.895,-1.025 1.581,-2.214 2.022,-3.501c0.051,-0.15 0.028,-0.315 -0.061,-0.446l-1.466,-2.126c0.055,-0.551 0.055,-1.107 0,-1.659c0,0.001 1.466,-2.125 1.466,-2.125c0.089,-0.131 0.112,-0.296 0.061,-0.446c-0.441,-1.287 -1.127,-2.476 -2.022,-3.501c-0.104,-0.12 -0.258,-0.183 -0.416,-0.17l-2.574,0.206c-0.451,-0.323 -0.932,-0.601 -1.438,-0.83c0.001,0 -1.107,-2.332 -1.107,-2.332zM13.584,2.633l1.078,2.269c0.053,0.11 0.144,0.197 0.256,0.245c0.554,0.236 1.077,0.538 1.558,0.9c0.097,0.073 0.218,0.108 0.34,0.098l2.504,-0.2c0.678,0.819 1.213,1.746 1.584,2.743l-1.426,2.069c-0.069,0.1 -0.099,0.222 -0.084,0.344c0.072,0.597 0.072,1.201 0,1.798c-0.015,0.122 0.015,0.244 0.084,0.344l1.426,2.069c-0.371,0.997 -0.906,1.924 -1.583,2.743c-0.001,0 -2.505,-0.2 -2.505,-0.2c-0.122,-0.01 -0.243,0.025 -0.34,0.098c-0.481,0.362 -1.004,0.664 -1.558,0.9c-0.112,0.048 -0.203,0.135 -0.256,0.245l-1.078,2.269c-1.049,0.177 -2.119,0.177 -3.167,0c-0.001,0 -1.079,-2.269 -1.079,-2.269c-0.053,-0.11 -0.144,-0.197 -0.256,-0.245c-0.554,-0.236 -1.077,-0.538 -1.558,-0.9c-0.097,-0.073 -0.218,-0.108 -0.34,-0.098l-2.504,0.2c-0.678,-0.819 -1.213,-1.746 -1.584,-2.743l1.426,-2.069c0.069,-0.1 0.099,-0.222 0.084,-0.344c-0.072,-0.597 -0.072,-1.201 0,-1.798c0.015,-0.122 -0.015,-0.244 -0.084,-0.344l-1.426,-2.069c0.371,-0.997 0.906,-1.924 1.583,-2.743c0.001,0 2.505,0.2 2.505,0.2c0.122,0.01 0.243,-0.025 0.34,-0.098c0.481,-0.362 1.004,-0.664 1.558,-0.9c0.112,-0.048 0.203,-0.135 0.256,-0.245l1.078,-2.269c1.049,-0.177 2.119,-0.177 3.167,0zM12,7.117c-2.695,0 -4.883,2.188 -4.883,4.883c0,2.695 2.188,4.883 4.883,4.883c2.695,0 4.883,-2.188 4.883,-4.883c0,-2.695 -2.188,-4.883 -4.883,-4.883zM12,8.117c2.143,0 3.883,1.74 3.883,3.883c0,2.143 -1.74,3.883 -3.883,3.883c-2.143,0 -3.883,-1.74 -3.883,-3.883c0,-2.143 1.74,-3.883 3.883,-3.883z"></path></g></g></svg>