<svg xmlns="http://www.w3.org/2000/svg" xmlns:xlink="http://www.w3.org/1999/xlink" viewBox="0,0,238.925,256" width="34px" height="34px" fill-rule="nonzero"><g fill="#fff" fill-rule="nonzero" stroke="none" stroke-width="1" stroke-linecap="butt" stroke-linejoin="miter" stroke-miterlimit="10" stroke-dasharray="" stroke-dashoffset="0" font-family="none" font-weight="none" font-size="none" text-anchor="none" style="mix-blend-mode: normal"><g transform="scale(4.26667,4.26667)"><path d="M28,0c-13.009,0 -24,10.532 -24,23v1h-1.29883c-1.489,0 -2.70117,1.21217 -2.70117,2.70117v18.59766c0,1.489 1.21217,2.70117 2.70117,2.70117h8.59766c1.489,0 2.70117,-1.21217 2.70117,-2.70117v-18.59766c0,-1.489 -1.21217,-2.70117 -2.70117,-2.70117h-1.29883v-1c0,-9.056 8.411,-17 18,-17c9.589,0 18,7.944 18,17v1h-1.29883c-1.489,0 -2.70117,1.21217 -2.70117,2.70117v18.59766c0,1.489 1.21217,2.70117 2.70117,2.70117h3.29883v1c0,3.309 -2.691,6 -6,6h-8.14258c-0.44734,-1.72017 -1.99898,-3 -3.85742,-3h-4c-2.206,0 -4,1.794 -4,4c0,2.206 1.794,4 4,4h4c1.85844,0 3.41009,-1.27983 3.85742,-3h8.14258c4.411,0 8,-3.589 8,-8v-1h3.29883c1.489,0 2.70117,-1.21217 2.70117,-2.70117v-18.59766c0,-1.489 -1.21217,-2.70117 -2.70117,-2.70117h-1.29883v-1c0,-12.468 -10.991,-23 -24,-23zM28,2c11.925,0 22,9.617 22,21v1h-2v-1c0,-10.299 -9.159,-19 -20,-19c-10.841,0 -20,8.701 -20,19v1h-2v-1c0,-11.383 10.075,-21 22,-21zM2.70117,26h2.29883h4h2.29883c0.387,0 0.70117,0.31417 0.70117,0.70117v18.59766c0,0.387 -0.31417,0.70117 -0.70117,0.70117h-8.59766c-0.387,0 -0.70117,-0.31417 -0.70117,-0.70117v-18.59766c0,-0.387 0.31417,-0.70117 0.70117,-0.70117zM44.70117,26h2.29883h4h2.29883c0.387,0 0.70117,0.31417 0.70117,0.70117v18.59766c0,0.387 -0.31417,0.70117 -0.70117,0.70117h-8.59766c-0.387,0 -0.70117,-0.31417 -0.70117,-0.70117v-18.59766c0,-0.387 0.31417,-0.70117 0.70117,-0.70117zM18,28c-0.552,0 -1,0.447 -1,1v18c0,0.404 0.24419,0.76983 0.61719,0.92383c0.124,0.052 0.25381,0.07617 0.38281,0.07617c0.26,0 0.51603,-0.10197 0.70703,-0.29297l5.70703,-5.70703h13.58594c0.552,0 1,-0.447 1,-1v-12c0,-0.553 -0.448,-1 -1,-1zM5,30c-0.552,0 -1,0.447 -1,1c0,0.553 0.448,1 1,1h4c0.552,0 1,-0.447 1,-1c0,-0.553 -0.448,-1 -1,-1zM19,30h18v10h-13c-0.265,0 -0.52003,0.10497 -0.70703,0.29297l-4.29297,4.29297zM47,30c-0.552,0 -1,0.447 -1,1c0,0.553 0.448,1 1,1h4c0.552,0 1,-0.447 1,-1c0,-0.553 -0.448,-1 -1,-1zM24,32c-0.552,0 -1,0.447 -1,1c0,0.553 0.448,1 1,1h8c0.552,0 1,-0.447 1,-1c0,-0.553 -0.448,-1 -1,-1zM5,35c-0.552,0 -1,0.447 -1,1c0,0.553 0.448,1 1,1h4c0.552,0 1,-0.447 1,-1c0,-0.553 -0.448,-1 -1,-1zM47,35c-0.552,0 -1,0.447 -1,1c0,0.553 0.448,1 1,1h4c0.552,0 1,-0.447 1,-1c0,-0.553 -0.448,-1 -1,-1zM22,36c-0.552,0 -1,0.447 -1,1c0,0.553 0.448,1 1,1h12c0.552,0 1,-0.447 1,-1c0,-0.553 -0.448,-1 -1,-1zM5,40c-0.552,0 -1,0.447 -1,1c0,0.553 0.448,1 1,1h4c0.552,0 1,-0.447 1,-1c0,-0.553 -0.448,-1 -1,-1zM47,40c-0.552,0 -1,0.447 -1,1c0,0.553 0.448,1 1,1h4c0.552,0 1,-0.447 1,-1c0,-0.553 -0.448,-1 -1,-1zM26,54h4c1.103,0 2,0.897 2,2c0,1.103 -0.897,2 -2,2h-4c-1.103,0 -2,-0.897 -2,-2c0,-1.103 0.897,-2 2,-2z"></path></g></g></svg>