<svg xmlns="http://www.w3.org/2000/svg" xmlns:xlink="http://www.w3.org/1999/xlink" viewBox="0,0,256,256" width="34px" height="34px" fill-rule="nonzero"><g fill="#000" fill-rule="nonzero" stroke="none" stroke-width="1" stroke-linecap="butt" stroke-linejoin="miter" stroke-miterlimit="10" stroke-dasharray="" stroke-dashoffset="0" font-family="none" font-weight="none" font-size="none" text-anchor="none" style="mix-blend-mode: normal"><g transform="scale(5.12,5.12)"><path d="M12,0c-1.64453,0 -3,1.35547 -3,3v31c0,1.64453 1.35547,3 3,3h24c1.64453,0 3,-1.35547 3,-3v-31c0,-1.64453 -1.35547,-3 -3,-3zM12,2h24c0.55469,0 1,0.44531 1,1v31c0,0.55469 -0.44531,1 -1,1h-24c-0.55469,0 -1,-0.44531 -1,-1v-31c0,-0.55469 0.44531,-1 1,-1zM15.3125,4c-1.26953,0 -2.3125,1.04297 -2.3125,2.3125v6.375c0,1.26953 1.04297,2.3125 2.3125,2.3125h17.375c1.26953,0 2.3125,-1.04297 2.3125,-2.3125v-6.375c0,-1.26953 -1.04297,-2.3125 -2.3125,-2.3125zM15.3125,6h17.375c0.12891,0 0.3125,0.18359 0.3125,0.3125v6.375c0,0.12891 -0.18359,0.3125 -0.3125,0.3125h-17.375c-0.12891,0 -0.3125,-0.18359 -0.3125,-0.3125v-6.375c0,-0.12891 0.18359,-0.3125 0.3125,-0.3125zM41.90625,13.96875c-0.04297,0.00781 -0.08594,0.01953 -0.125,0.03125c-0.46484,0.10547 -0.79297,0.52344 -0.78125,1v19.1875c-0.00391,0.35938 0.18359,0.69531 0.49609,0.87891c0.3125,0.17969 0.69531,0.17969 1.00781,0c0.3125,-0.18359 0.5,-0.51953 0.49609,-0.87891v-19.1875c0.01172,-0.28906 -0.10547,-0.56641 -0.3125,-0.76172c-0.21094,-0.19922 -0.49609,-0.29687 -0.78125,-0.26953zM13.90625,17.09375c-0.5,0 -0.90625,0.40625 -0.90625,0.90625v2.09375c0,0.5 0.40625,0.90625 0.90625,0.90625h4.09375c0.5,0 0.90625,-0.40625 0.90625,-0.90625v-2.09375c0,-0.5 -0.40625,-0.90625 -0.90625,-0.90625zM22,17.09375c-0.5,0 -0.90625,0.40625 -0.90625,0.90625v2.09375c0,0.5 0.40625,0.90625 0.90625,0.90625h4.09375c0.5,0 0.90625,-0.40625 0.90625,-0.90625v-2.09375c0,-0.5 -0.40625,-0.90625 -0.90625,-0.90625zM30,17.09375c-0.5,0 -0.90625,0.40625 -0.90625,0.90625v2.09375c0,0.5 0.40625,0.90625 0.90625,0.90625h4.09375c0.5,0 0.90625,-0.40625 0.90625,-0.90625v-2.09375c0,-0.5 -0.40625,-0.90625 -0.90625,-0.90625zM13.90625,23.09375c-0.5,0 -0.90625,0.40625 -0.90625,0.90625v2.09375c0,0.5 0.40625,0.90625 0.90625,0.90625h4.09375c0.5,0 0.90625,-0.40625 0.90625,-0.90625v-2.09375c0,-0.5 -0.40625,-0.90625 -0.90625,-0.90625zM22,23.09375c-0.5,0 -0.90625,0.40625 -0.90625,0.90625v2.09375c0,0.5 0.40625,0.90625 0.90625,0.90625h4.09375c0.5,0 0.90625,-0.40625 0.90625,-0.90625v-2.09375c0,-0.5 -0.40625,-0.90625 -0.90625,-0.90625zM30,23.09375c-0.5,0 -0.90625,0.40625 -0.90625,0.90625v2.09375c0,0.5 0.40625,0.90625 0.90625,0.90625h4.09375c0.5,0 0.90625,-0.40625 0.90625,-0.90625v-2.09375c0,-0.5 -0.40625,-0.90625 -0.90625,-0.90625zM13.90625,29.09375c-0.5,0 -0.90625,0.40625 -0.90625,0.90625v2.09375c0,0.5 0.40625,0.90625 0.90625,0.90625h4.09375c0.5,0 0.90625,-0.40625 0.90625,-0.90625v-2.09375c0,-0.5 -0.40625,-0.90625 -0.90625,-0.90625zM22,29.09375c-0.5,0 -0.90625,0.40625 -0.90625,0.90625v2.09375c0,0.5 0.40625,0.90625 0.90625,0.90625h4.09375c0.5,0 0.90625,-0.40625 0.90625,-0.90625v-2.09375c0,-0.5 -0.40625,-0.90625 -0.90625,-0.90625zM30,29.09375c-0.5,0 -0.90625,0.40625 -0.90625,0.90625v2.09375c0,0.5 0.40625,0.90625 0.90625,0.90625h4.09375c0.5,0 0.90625,-0.40625 0.90625,-0.90625v-2.09375c0,-0.5 -0.40625,-0.90625 -0.90625,-0.90625zM13.8125,38v8.1875c0,2.03516 1.64063,3.8125 3.78125,3.8125h12.71875c2.03516,0 3.78125,-1.67187 3.78125,-3.8125v-8.1875h-2v8.1875c0,1.05859 -0.81641,1.8125 -1.78125,1.8125h-1.3125v-10h-5v10h-6.40625c-1.05859,0 -1.78125,-0.84766 -1.78125,-1.8125v-8.1875z"></path></g></g></svg>