<svg xmlns="http://www.w3.org/2000/svg" xmlns:xlink="http://www.w3.org/1999/xlink" viewBox="0,0,256,256" width="34px" height="34px" fill-rule="nonzero"><g fill="#fff" fill-rule="nonzero" stroke="none" stroke-width="1" stroke-linecap="butt" stroke-linejoin="miter" stroke-miterlimit="10" stroke-dasharray="" stroke-dashoffset="0" font-family="none" font-weight="none" font-size="none" text-anchor="none" style="mix-blend-mode: normal"><g transform="translate(-0.3509,0.27253) scale(2,2)"><path d="M105.92,72.85l-0.35,-0.63c-0.54,-1 -3,-3.68 -9.53,-10.67c-1.53,-1.64 -3,-3.15 -4,-4.33v-27.22c0,-1.10457 -0.89543,-2 -2,-2h-36.04c-0.00466,-0.05991 -0.00466,-0.12009 0,-0.18c1.23,-5.36 -1.93,-9.34 -3.44,-11.26c-0.18,-0.21 -0.39,-0.48 -0.48,-0.61c-0.26128,-1.02844 -0.07216,-2.11949 0.52,-3c0.46058,-0.76135 0.36276,-1.73543 -0.24,-2.39c-0.24,-0.26 -6,-6.3 -18.82,-3l-0.2,0.06c-9.1,3.36 -10.62,8.54 -10.77,9.12c-0.10262,0.44235 -0.05694,0.90617 0.13,1.32c0.80355,2.30165 1.16654,4.73402 1.07,7.17c0,3.77 -2.12,20.4 -2.45,22.78c-0.37735,2.61503 0.22064,5.27749 1.68,7.48c0.12,0.22 0.25,0.43 0.36,0.65c0.51,1 2.4,2.8 7.29,7.46c2.61,2.5 5.53,5.28 7.34,7.19v27.21c0,1.10457 0.89543,2 2,2h35.7c-1.07,5.13 1.94,8.94 3.4,10.78c0.19,0.24 0.35,0.43 0.45,0.59c0.24009,0.97486 0.0586,2.00576 -0.5,2.84c-0.46058,0.76135 -0.36276,1.73543 0.24,2.39c0.18,0.2 3.71,3.89 11.31,3.89c2.3838,-0.02015 4.75566,-0.33931 7.06,-0.95l0.19,-0.06c8.88,-3.28 10.37,-8.35 10.51,-8.91c0.10651,-0.4412 0.06433,-0.90523 -0.12,-1.32c-0.77215,-2.24931 -1.11145,-4.62447 -1,-7c0,-3.64 2.07,-19.83 2.38,-22.15c0.33634,-2.54174 -0.26442,-5.11897 -1.69,-7.25zM31.42,60.71c-2.7,-2.58 -6.07,-5.79 -6.52,-6.45c-0.13333,-0.24667 -0.27333,-0.49667 -0.42,-0.75c-1.0074,-1.44077 -1.43578,-3.20785 -1.2,-4.95c0,-0.18 2.49,-18.93 2.48,-23.32c0.057,-2.70868 -0.31769,-5.40916 -1.11,-8c0.58,-1.09 2.49,-3.79 8,-5.84c7.62,-1.93 12,-0.07 13.79,1.1c-0.59817,1.613 -0.59817,3.387 0,5c0.26328,0.5525 0.59962,1.06711 1,1.53c1.3,1.64 3.48,4.39 2.68,7.87c-1.35507,5.2537 -1.04762,10.79833 0.88,15.87c1.07514,2.63994 2.3627,5.1883 3.85,7.62c1.91,3.22 1.86,3.48 1.3,4.18c-0.40465,0.48132 -1.01212,0.74431 -1.64,0.71c-1.81,0.07 -4.26,-1.15 -5.94,-3c-1.29,-1.38 -2.53,-4 -3.73,-6.46c-1.56,-3.25 -3,-6.32 -5,-7.91c-4.2,-3.36 -7.86,-3.39 -8.27,-3.4c-1.10457,0 -2,0.89543 -2,2c0,1.10457 0.89543,2 2,2c0.84041,0.05309 1.66559,0.24924 2.44,0.58c-1.80388,1.63912 -3.31548,3.57343 -4.47,5.72c-0.49097,0.98863 -0.08816,2.18809 0.9,2.68c0.27455,0.14412 0.57992,0.21961 0.89,0.22c0.75894,-0.0004 1.45227,-0.43034 1.79,-1.11c0.76146,-1.41155 1.73249,-2.69951 2.88,-3.82v22.33c-1.43,-1.39 -3,-2.91 -4.58,-4.4zM40,45.07c0.43,0.83 0.85,1.69 1.25,2.53c1.33,2.76 2.7,5.62 4.4,7.45c2.49,2.68 6,4.37 9,4.23c1.79284,-0.00941 3.48753,-0.82008 4.62,-2.21c2.41,-3 0.84,-5.65 -1,-8.72c-1.3885,-2.24917 -2.58603,-4.61077 -3.58,-7.06c-1.16204,-2.95079 -1.62745,-6.12994 -1.36,-9.29h34.67v52c-0.61,-1.09 -1.21,-2.34 -1.77,-3.51c-1.3,-2.7 -2.64,-5.48 -4.3,-7.26c-2.43,-2.58 -5.93,-4.23 -8.81,-4.1c-1.75852,0.00954 -3.42047,0.80566 -4.53,2.17c-2.37,3 -0.83,5.54 0.94,8.54c1.34349,2.19075 2.50408,4.48854 3.47,6.87c1.17246,2.94781 1.63161,6.13101 1.34,9.29h-34.34zM103.61,79.6c0,0.18 -2.43,18.38 -2.42,22.7c-0.05226,2.62348 0.30882,5.23883 1.07,7.75c-0.57,1.07 -2.42,3.67 -7.71,5.64c-7.33,1.86 -11.55,0.09 -13.33,-1c0.57795,-1.56501 0.57795,-3.28499 0,-4.85c-0.25887,-0.54887 -0.59568,-1.05746 -1,-1.51c-1.26,-1.58 -3.37,-4.24 -2.59,-7.61c1.29984,-5.11964 0.98549,-10.51591 -0.9,-15.45c-1.037,-2.58459 -2.28453,-5.07965 -3.73,-7.46c-1.83,-3.11 -1.78,-3.35 -1.26,-4c0.38478,-0.45747 0.96331,-0.70593 1.56,-0.67c2.19745,0.18357 4.2393,1.20808 5.7,2.86c1.24,1.34 2.44,3.85 3.61,6.27c1.53,3.17 3,6.16 4.92,7.73c4.1,3.27 7.71,3.32 8.08,3.31c1.10457,0 2,-0.89543 2,-2c0,-1.10457 -0.89543,-2 -2,-2c-0.77989,-0.0558 -1.54603,-0.23468 -2.27,-0.53c1.73262,-1.58347 3.1833,-3.45008 4.29,-5.52c0.49706,-1.0024 0.0874,-2.21794 -0.915,-2.715c-1.0024,-0.49706 -2.21794,-0.0874 -2.715,0.915c-0.54111,1.0567 -1.21306,2.0411 -2,2.93v-21.3l1.12,1.19c3.32,3.54 8.34,8.89 8.91,9.82l0.41,0.73c0.9825,1.38331 1.40089,3.08906 1.17,4.77z"></path></g></g></svg>