<svg xmlns="http://www.w3.org/2000/svg" xmlns:xlink="http://www.w3.org/1999/xlink" viewBox="0,0,256,256" width="32px" height="32px" fill-rule="nonzero"><g fill="#cc5de8" fill-rule="nonzero" stroke="none" stroke-width="1" stroke-linecap="butt" stroke-linejoin="miter" stroke-miterlimit="10" stroke-dasharray="" stroke-dashoffset="0" font-family="none" font-weight="none" font-size="none" text-anchor="none" style="mix-blend-mode: normal"><g transform="scale(2,2)"><path d="M19,12c-3.86599,0 -7,3.13401 -7,7v30c0,3.86599 3.13401,7 7,7h50c3.86599,0 7,-3.13401 7,-7v-30c0,-3.86599 -3.13401,-7 -7,-7zM19,16h50c1.65685,0 3,1.34315 3,3v5h-56v-5c0,-1.65685 1.34315,-3 3,-3zM16,28h56v21c0,1.65685 -1.34315,3 -3,3h-50c-1.65685,0 -3,-1.34315 -3,-3zM26,36c-1.10457,0 -2,0.89543 -2,2c0,1.10457 0.89543,2 2,2h20c1.10457,0 2,-0.89543 2,-2c0,-1.10457 -0.89543,-2 -2,-2zM55,36c-1.10457,0 -2,0.89543 -2,2c0,1.10457 0.89543,2 2,2h7c1.10457,0 2,-0.89543 2,-2c0,-1.10457 -0.89543,-2 -2,-2zM82,36c-1.10457,0 -2,0.89543 -2,2c0,1.10457 0.89543,2 2,2h5.16992l8.83008,8.83008v17.16992c0,1.10457 0.89543,2 2,2c1.10457,0 2,-0.89543 2,-2v-18c-0.00215,-0.52961 -0.21428,-1.03674 -0.58984,-1.41016l-10,-10c-0.37341,-0.37557 -0.88055,-0.58769 -1.41016,-0.58984zM29.94141,60c-1.08162,0.0317 -1.94187,0.91791 -1.94141,2v18c0.00215,0.52961 0.21428,1.03674 0.58984,1.41016l10,10c0.37341,0.37557 0.88055,0.58769 1.41016,0.58984h6c1.10457,0 2,-0.89543 2,-2c0,-1.10457 -0.89543,-2 -2,-2h-5.16992l-8.83008,-8.83008v-17.16992c0.00023,-0.54074 -0.21851,-1.05854 -0.60635,-1.43534c-0.38784,-0.3768 -0.91173,-0.5805 -1.45225,-0.56466zM59,72c-3.86599,0 -7,3.13401 -7,7v30c0,3.86599 3.13401,7 7,7h50c3.86599,0 7,-3.13401 7,-7v-30c0,-3.86599 -3.13401,-7 -7,-7zM59,76h50c1.65685,0 3,1.34315 3,3v5h-56v-5c0,-1.65685 1.34315,-3 3,-3zM56,88h56v21c0,1.65685 -1.34315,3 -3,3h-50c-1.65685,0 -3,-1.34315 -3,-3zM66,96c-1.10457,0 -2,0.89543 -2,2c0,1.10457 0.89543,2 2,2h20c1.10457,0 2,-0.89543 2,-2c0,-1.10457 -0.89543,-2 -2,-2zM95,96c-1.10457,0 -2,0.89543 -2,2c0,1.10457 0.89543,2 2,2h7c1.10457,0 2,-0.89543 2,-2c0,-1.10457 -0.89543,-2 -2,-2z"></path></g></g></svg>