<svg xmlns="http://www.w3.org/2000/svg" xmlns:xlink="http://www.w3.org/1999/xlink" viewBox="0,0,256,256" width="50px" height="50px" fill-rule="evenodd"><g fill="none" fill-rule="evenodd" stroke="none" stroke-width="1" stroke-linecap="butt" stroke-linejoin="miter" stroke-miterlimit="10" stroke-dasharray="" stroke-dashoffset="0" font-family="none" font-weight="none" font-size="none" text-anchor="none" style="mix-blend-mode: normal"><g transform="scale(0.5,0.5)"><path d="M433,212c41,7 71,42 71,85c0,48 -39,86 -86,86h-323v0h-1c-48,0 -86,-39 -86,-86c0,-48 39,-86 86,-86c17,0 33,5 46,13c0,-1 0,-2 0,-2c0,-63 51,-114 114,-114c41,0 77,22 97,54c5,-1 11,-2 17,-2c32,0 59,22 66,52z" fill="#707070"></path><path d="M257,348v0c9,0 16,-7 16,-16v-121l42,43c5,5 13,5 17,0v0c5,-5 5,-13 0,-17l-63,-63c-1,-2 -3,-3 -4,-4c-2,-2 -5,-3 -8,-3h-1v0v0v0v0v0h-1c-3,0 -6,1 -8,3c-2,1 -3,2 -4,4l-63,63c-5,5 -5,13 0,17v0c5,5 13,5 17,0l42,-43v121c0,9 7,16 16,16v0v0v0v0z" fill="#ebecec"></path></g></g></svg>