<svg width="24" height="17" viewBox="0 0 24 17" fill="none" xmlns="http://www.w3.org/2000/svg">
<path d="M4.27925 3.1875C3.18428 3.1875 2.29102 4.1196 2.29102 5.26218V12.0034C2.29102 13.146 3.18428 14.0781 4.27925 14.0781H12.4907C13.3217 14.0781 14.0007 13.3694 14.0007 12.5025V10.7817C14.0007 10.5403 13.9569 10.3303 13.8898 10.142C13.9569 9.95975 14.0007 9.75632 14.0007 9.52359V7.68497C14.0007 6.81787 13.3217 6.10958 12.4907 6.10989H5.18909C4.90796 6.10989 4.68545 5.87745 4.68545 5.58435V5.57242C4.68545 5.27907 4.9082 5.04688 5.18909 5.04688H10.1823C10.216 5.04737 10.2495 5.04087 10.2808 5.02774C10.3121 5.01462 10.3406 4.99513 10.3646 4.97042C10.3887 4.9457 10.4077 4.91625 10.4207 4.88378C10.4338 4.8513 10.4405 4.81645 10.4405 4.78125C10.4405 4.74605 10.4338 4.7112 10.4207 4.67872C10.4077 4.64625 10.3887 4.6168 10.3646 4.59208C10.3406 4.56737 10.3121 4.54788 10.2808 4.53476C10.2495 4.52163 10.216 4.51513 10.1823 4.51562H5.18909C4.633 4.51562 4.17633 4.99186 4.17633 5.57242V5.58435C4.17633 6.16462 4.63272 6.64114 5.18909 6.64114H12.4907C13.0465 6.64093 13.4915 7.10494 13.4915 7.68497V9.52359C13.4915 9.53469 13.4878 9.54125 13.4876 9.55212C13.319 9.40189 13.1327 9.28671 12.9337 9.24863C12.6613 9.19649 12.382 9.24243 12.1571 9.39804C11.9322 9.55365 11.7753 9.83437 11.7753 10.1622C11.7753 10.481 11.9396 10.753 12.166 10.8958C12.3925 11.0387 12.6681 11.0738 12.9372 11.0182C13.1323 10.978 13.3163 10.8653 13.4836 10.7199C13.4844 10.743 13.4915 10.7576 13.4915 10.7817V12.5025C13.4915 13.0822 13.0466 13.5469 12.4907 13.5469H4.27925C3.45944 13.5469 2.80013 12.8589 2.80013 12.0034V5.26218C2.80013 4.40672 3.45944 3.71875 4.27925 3.71875H12.005C12.407 3.71875 12.7279 4.05355 12.7279 4.47308V5.3125C12.7274 5.3477 12.7336 5.38264 12.7462 5.41531C12.7588 5.44797 12.7775 5.4777 12.8011 5.50277C12.8248 5.52783 12.853 5.54774 12.8842 5.56133C12.9153 5.57491 12.9487 5.58191 12.9824 5.58191C13.0162 5.58191 13.0496 5.57491 13.0807 5.56133C13.1118 5.54774 13.14 5.52783 13.1637 5.50277C13.1874 5.4777 13.2061 5.44797 13.2186 5.41531C13.2312 5.38264 13.2375 5.3477 13.237 5.3125V4.47308C13.237 3.76637 12.6822 3.1875 12.005 3.1875H4.27925ZM12.7264 9.75964C12.7639 9.75977 12.8025 9.76356 12.8417 9.77106C13.0234 9.80584 13.2049 9.9229 13.3319 10.1373C13.2051 10.3429 13.0234 10.4592 12.8382 10.4974C12.6782 10.5304 12.525 10.5016 12.4296 10.4413C12.3341 10.3811 12.2844 10.3115 12.2844 10.1622C12.2844 9.9943 12.3416 9.90765 12.4385 9.84058C12.5112 9.79027 12.6136 9.75926 12.7264 9.75964Z" fill="#10B981" fill-opacity="0.94" stroke="#10B981" stroke-opacity="0.94"/>
<path d="M14.375 9.60628L19.3923 12.4676L19.3575 6.69418L14.375 9.60628ZM22.997 9.06251L18.8719 9.08344L18.8779 10.0834L23.003 10.0625L22.997 9.06251Z" fill="#10B981" fill-opacity="0.94"/>
</svg>
