<svg width="23" height="17" viewBox="0 0 23 17" fill="none" xmlns="http://www.w3.org/2000/svg">
<g clip-path="url(#clip0_308_14)">
<path d="M4.76398 0C3.69136 0 2.81633 0.932102 2.81633 2.07468V8.81595C2.81633 9.95852 3.69136 10.8906 4.76398 10.8906H12.8079C13.6219 10.8906 14.287 10.1819 14.287 9.31503V7.59418C14.287 7.35281 14.2442 7.14281 14.1784 6.9545C14.2441 6.77225 14.287 6.56882 14.287 6.33609V4.49747C14.287 3.63037 13.6219 2.92208 12.8079 2.92239H5.65526C5.37987 2.92239 5.16189 2.68995 5.16189 2.39685V2.38492C5.16189 2.09157 5.3801 1.85938 5.65526 1.85938H10.5466C10.5796 1.85987 10.6124 1.85337 10.6431 1.84024C10.6737 1.82712 10.7016 1.80763 10.7252 1.78292C10.7487 1.7582 10.7674 1.72875 10.7801 1.69628C10.7929 1.6638 10.7995 1.62895 10.7995 1.59375C10.7995 1.55855 10.7929 1.5237 10.7801 1.49122C10.7674 1.45875 10.7487 1.4293 10.7252 1.40458C10.7016 1.37987 10.6737 1.36038 10.6431 1.34726C10.6124 1.33413 10.5796 1.32763 10.5466 1.32812H5.65526C5.11051 1.32812 4.66317 1.80436 4.66317 2.38492V2.39685C4.66317 2.97712 5.11024 3.45364 5.65526 3.45364H12.8079C13.3523 3.45343 13.7883 3.91744 13.7883 4.49747V6.33609C13.7883 6.34719 13.7846 6.35375 13.7844 6.36462C13.6192 6.21439 13.4367 6.09921 13.2418 6.06113C12.975 6.00899 12.7014 6.05493 12.4811 6.21054C12.2608 6.36615 12.107 6.64687 12.107 6.97473C12.107 7.29346 12.268 7.56545 12.4898 7.70831C12.7116 7.85117 12.9816 7.88631 13.2452 7.83075C13.4363 7.79047 13.6166 7.6778 13.7805 7.53244C13.7813 7.55553 13.7883 7.57005 13.7883 7.59418V9.31503C13.7883 9.89474 13.3524 10.3594 12.8079 10.3594H4.76398C3.9609 10.3594 3.31505 9.6714 3.31505 8.81595V2.07468C3.31505 1.21922 3.9609 0.53125 4.76398 0.53125H12.332C12.7259 0.53125 13.0402 0.866046 13.0402 1.28558V2.125C13.0397 2.1602 13.0458 2.19514 13.0581 2.22781C13.0705 2.26047 13.0888 2.2902 13.112 2.31527C13.1352 2.34033 13.1628 2.36024 13.1933 2.37383C13.2238 2.38741 13.2565 2.39441 13.2895 2.39441C13.3226 2.39441 13.3553 2.38741 13.3858 2.37383C13.4163 2.36024 13.4439 2.34033 13.4671 2.31527C13.4903 2.2902 13.5086 2.26047 13.5209 2.22781C13.5333 2.19514 13.5394 2.1602 13.5389 2.125V1.28558C13.5389 0.578871 12.9955 0 12.332 0H4.76398ZM13.0387 6.57214C13.0755 6.57227 13.1133 6.57606 13.1517 6.58356C13.3297 6.61834 13.5075 6.7354 13.6319 6.94983C13.5077 7.15542 13.3296 7.27166 13.1483 7.30988C12.9916 7.3429 12.8414 7.31405 12.748 7.25385C12.6545 7.19364 12.6057 7.12404 12.6057 6.97473C12.6057 6.8068 12.6618 6.72015 12.7567 6.65308C12.8279 6.60277 12.9283 6.57176 13.0387 6.57214Z" fill="#FD1919" stroke="#FC0F0F"/>
</g>
<path d="M23 5.3125L17.9968 2.42573L18.0033 8.19927L23 5.3125ZM14.5006 5.8125L18.5006 5.8125L18.4995 4.8125L14.4994 4.8125L14.5006 5.8125Z" fill="#FC0F0F"/>
<defs>
<clipPath id="clip0_308_14">
<rect width="15.9592" height="17" fill="white"/>
</clipPath>
</defs>
</svg>
