<svg xmlns="http://www.w3.org/2000/svg" xmlns:xlink="http://www.w3.org/1999/xlink" viewBox="0,0,256,256" width="20px" height="20px" fill-rule="nonzero"><g fill="#707070" fill-rule="nonzero" stroke="none" stroke-width="1" stroke-linecap="butt" stroke-linejoin="miter" stroke-miterlimit="10" stroke-dasharray="" stroke-dashoffset="0" font-family="none" font-weight="none" font-size="none" text-anchor="none" style="mix-blend-mode: normal"><g transform="scale(5.33333,5.33333)"><path d="M18.5,6c-1.91495,0 -3.5,1.58505 -3.5,3.5v2.5h-7.5c-1.93,0 -3.5,1.57 -3.5,3.5v12.5h17v-0.5c0,-0.83 0.67,-1.5 1.5,-1.5h3c0.83,0 1.5,0.67 1.5,1.5v0.5h17v-12.5c0,-1.93 -1.57,-3.5 -3.5,-3.5h-7.5v-2.5c0,-1.91495 -1.58505,-3.5 -3.5,-3.5zM18.5,9h11c0.29504,0 0.5,0.20495 0.5,0.5v2.5h-12v-2.5c0,-0.29505 0.20496,-0.5 0.5,-0.5zM4,31v7.5c0,1.93 1.57,3.5 3.5,3.5h33c1.93,0 3.5,-1.57 3.5,-3.5v-7.5h-17v0.5c0,0.83 -0.67,1.5 -1.5,1.5h-3c-0.83,0 -1.5,-0.67 -1.5,-1.5v-0.5z"></path></g></g></svg>