<svg xmlns="http://www.w3.org/2000/svg" xmlns:xlink="http://www.w3.org/1999/xlink" viewBox="0,0,256,256" width="20px" height="20px" fill-rule="nonzero"><g fill="#fff" fill-rule="nonzero" stroke="none" stroke-width="1" stroke-linecap="butt" stroke-linejoin="miter" stroke-miterlimit="10" stroke-dasharray="" stroke-dashoffset="0" font-family="none" font-weight="none" font-size="none" text-anchor="none" style="mix-blend-mode: normal"><g transform="scale(5.33333,5.33333)"><path d="M34,4.00195c-0.8535,0 -1.70627,0.1035 -2.57227,0.3125c-0.622,0.149 -1.08253,0.67845 -1.14453,1.31445l-0.04102,0.42188c-0.047,0.481 -0.32319,0.9123 -0.74219,1.1543c-0.419,0.241 -0.93114,0.26841 -1.36914,0.06641l-0.38867,-0.17578c-0.579,-0.263 -1.26898,-0.13197 -1.70898,0.33203c-1.198,1.26 -2.09208,2.80108 -2.58008,4.45508c-0.182,0.613 0.04736,1.27253 0.56836,1.64453l0.34961,0.25c0.393,0.283 0.62891,0.73966 0.62891,1.22266c0,0.483 -0.23495,0.9387 -0.62695,1.2207l-0.35156,0.25195c-0.032,0.023 -0.05203,0.05508 -0.08203,0.08008l0.07227,0.47461c0.047,0.306 0.21833,0.55984 0.48633,0.71484c0.155,0.089 0.328,0.13672 0.5,0.13672c0.122,0 0.24423,-0.02426 0.36523,-0.07227l1.7207,-0.67187c0.407,-0.158 0.83353,-0.23828 1.26953,-0.23828c1.044,0 2.02641,0.46072 2.69141,1.26172c1.231,1.48 2.19619,3.14703 2.86719,4.95703c0.357,0.964 0.25892,2.00319 -0.20508,2.86719c0.098,0.003 0.19697,0.01758 0.29297,0.01758c0.842,0 1.70822,-0.10545 2.57422,-0.31445c0.621,-0.149 1.08058,-0.6765 1.14258,-1.3125l0.04102,-0.42383c0.047,-0.481 0.32319,-0.9123 0.74219,-1.1543c0.42,-0.24 0.93214,-0.26641 1.36914,-0.06641l0.38867,0.17773c0.579,0.265 1.26998,0.13297 1.70898,-0.33203c1.198,-1.26 2.09208,-2.80108 2.58008,-4.45508c0.182,-0.615 -0.04736,-1.27548 -0.56836,-1.64648l-0.34961,-0.25c-0.393,-0.283 -0.62891,-0.73966 -0.62891,-1.22266c0,-0.483 0.23495,-0.9387 0.62695,-1.2207l0.35156,-0.25195c0.521,-0.371 0.75036,-1.03053 0.56836,-1.64453c-0.488,-1.654 -1.38208,-3.19508 -2.58008,-4.45508c-0.44,-0.465 -1.13098,-0.59703 -1.70898,-0.33203l-0.38672,0.17578c-0.442,0.2 -0.95309,0.17259 -1.37109,-0.06641c-0.419,-0.242 -0.69519,-0.67234 -0.74219,-1.15234l-0.04102,-0.42383c-0.062,-0.637 -0.52253,-1.16545 -1.14453,-1.31445c-0.866,-0.209 -1.71877,-0.3125 -2.57227,-0.3125zM34,12c1.657,0 3,1.343 3,3c0,1.657 -1.343,3 -3,3c-1.657,0 -3,-1.343 -3,-3c0,-1.657 1.343,-3 3,-3zM17.90234,13.99609c-0.80762,0.0025 -1.58259,0.08483 -2.43359,0.23633c-0.633,0.111 -1.12566,0.614 -1.22266,1.25l-0.28125,1.8457c-0.137,0.905 -0.67084,1.68748 -1.46484,2.14648c-0.792,0.458 -1.7368,0.53227 -2.5918,0.19727l-1.72266,-0.67383c-0.601,-0.233 -1.28622,-0.0595 -1.69922,0.4375c-1.084,1.304 -1.93439,2.77595 -2.52539,4.37695c-0.224,0.606 -0.0343,1.28741 0.4707,1.69141l1.44336,1.1543c0.715,0.571 1.125,1.4248 1.125,2.3418c0,0.917 -0.41,1.7708 -1.125,2.3418l-1.44336,1.1543c-0.505,0.404 -0.6937,1.08541 -0.4707,1.69141c0.592,1.601 1.44139,3.07295 2.52539,4.37695c0.413,0.497 1.10022,0.6735 1.69922,0.4375l1.72266,-0.67383c0.854,-0.334 1.7998,-0.25973 2.5918,0.19727c0.794,0.459 1.3288,1.24048 1.4668,2.14648l0.2793,1.8457c0.097,0.636 0.58966,1.139 1.22266,1.25c0.877,0.157 1.70425,0.23242 2.53125,0.23242c0.827,0 1.65425,-0.07447 2.53125,-0.23047c0.633,-0.111 1.12566,-0.61595 1.22266,-1.25195l0.2793,-1.8457h0.00195c0.137,-0.905 0.67084,-1.68748 1.46484,-2.14648c0.794,-0.457 1.7388,-0.52931 2.5918,-0.19531l1.72266,0.67383c0.601,0.234 1.28622,0.05755 1.69922,-0.43945c1.084,-1.304 1.93439,-2.774 2.52539,-4.375c0.224,-0.607 0.0343,-1.28936 -0.4707,-1.69336l-1.44336,-1.1543c-0.715,-0.571 -1.125,-1.4248 -1.125,-2.3418c0,-0.917 0.41095,-1.77175 1.12695,-2.34375l1.44141,-1.15234c0.505,-0.403 0.69275,-1.08736 0.46875,-1.69336c-0.592,-1.596 -1.4423,-3.06605 -2.5293,-4.37305c-0.413,-0.497 -1.09922,-0.67245 -1.69922,-0.43945l-1.7168,0.67188c-0.853,0.335 -1.7978,0.26269 -2.5918,-0.19531c-0.794,-0.459 -1.3288,-1.24048 -1.4668,-2.14648l-0.2793,-1.83789c-0.097,-0.639 -0.59252,-1.14295 -1.22852,-1.25195c-0.9755,-0.1675 -1.81542,-0.24469 -2.62305,-0.24219zM18,24c2.761,0 5,2.239 5,5c0,2.761 -2.239,5 -5,5c-2.761,0 -5,-2.239 -5,-5c0,-2.761 2.239,-5 5,-5z"></path></g></g></svg>