<svg xmlns="http://www.w3.org/2000/svg" xmlns:xlink="http://www.w3.org/1999/xlink" viewBox="0,0,256,256" width="20px" height="20px" fill-rule="nonzero"><g fill="#fff" fill-rule="nonzero" stroke="none" stroke-width="1" stroke-linecap="butt" stroke-linejoin="miter" stroke-miterlimit="10" stroke-dasharray="" stroke-dashoffset="0" font-family="none" font-weight="none" font-size="none" text-anchor="none" style="mix-blend-mode: normal"><g transform="scale(5.33333,5.33333)"><path d="M37.5,23h-8c-2.481,0 -4.5,-2.019 -4.5,-4.5v-8c0,-2.481 2.019,-4.5 4.5,-4.5h8c2.481,0 4.5,2.019 4.5,4.5v8c0,2.481 -2.019,4.5 -4.5,4.5zM18.5,6h-8c-2.481,0 -4.5,2.019 -4.5,4.5v8c0,2.481 2.019,4.5 4.5,4.5h8c2.481,0 4.5,-2.019 4.5,-4.5v-8c0,-2.481 -2.019,-4.5 -4.5,-4.5zM14.5,17c-1.381,0 -2.5,-1.119 -2.5,-2.5c0,-1.381 1.119,-2.5 2.5,-2.5c1.381,0 2.5,1.119 2.5,2.5c0,1.381 -1.119,2.5 -2.5,2.5zM18.5,25h-8c-2.481,0 -4.5,2.019 -4.5,4.5v8c0,2.481 2.019,4.5 4.5,4.5h8c2.481,0 4.5,-2.019 4.5,-4.5v-8c0,-2.481 -2.019,-4.5 -4.5,-4.5zM16.611,36h-4.222c-0.441,0 -0.711,-0.486 -0.477,-0.86l2.111,-3.378c0.22,-0.352 0.733,-0.352 0.953,0l2.111,3.378c0.235,0.374 -0.035,0.86 -0.476,0.86zM37.5,25h-8c-2.481,0 -4.5,2.019 -4.5,4.5v8c0,2.481 2.019,4.5 4.5,4.5h8c2.481,0 4.5,-2.019 4.5,-4.5v-8c0,-2.481 -2.019,-4.5 -4.5,-4.5zM36.133,34.206l-1.927,1.927c-0.39,0.39 -1.022,0.39 -1.412,0l-1.927,-1.927c-0.39,-0.39 -0.39,-1.022 0,-1.412l1.927,-1.927c0.39,-0.39 1.022,-0.39 1.412,0l1.927,1.927c0.39,0.39 0.39,1.022 0,1.412z"></path></g></g></svg>