<svg xmlns="http://www.w3.org/2000/svg" xmlns:xlink="http://www.w3.org/1999/xlink" viewBox="0,0,256,256" width="24px" height="24px" fill-rule="nonzero"><g fill="#e2164b" fill-rule="nonzero" stroke="none" stroke-width="1" stroke-linecap="butt" stroke-linejoin="miter" stroke-miterlimit="10" stroke-dasharray="" stroke-dashoffset="0" font-family="none" font-weight="none" font-size="none" text-anchor="none" style="mix-blend-mode: normal"><g transform="scale(8,8)"><path d="M16,3c-7.16846,0 -13,5.83203 -13,13c0,7.16797 5.83154,13 13,13c7.16846,0 13,-5.83203 13,-13c0,-7.16797 -5.83154,-13 -13,-13zM16,5c6.06543,0 11,4.93457 11,11c0,6.06543 -4.93457,11 -11,11c-6.06543,0 -11,-4.93457 -11,-11c0,-6.06543 4.93457,-11 11,-11zM13.25,12.25c-0.25586,0 -0.51172,0.09766 -0.70703,0.29297c-0.39062,0.39063 -0.39062,1.02344 0,1.41406l2.04297,2.04297l-2.04297,2.04297c-0.39062,0.39063 -0.39062,1.02344 0,1.41406c0.19531,0.19531 0.45117,0.29297 0.70703,0.29297c0.25586,0 0.51172,-0.09766 0.70703,-0.29297l2.04297,-2.04297l2.04297,2.04297c0.19531,0.19531 0.45117,0.29297 0.70703,0.29297c0.25586,0 0.51172,-0.09766 0.70703,-0.29297c0.39063,-0.39062 0.39063,-1.02344 0,-1.41406l-2.04297,-2.04297l2.04297,-2.04297c0.39063,-0.39062 0.39063,-1.02344 0,-1.41406c-0.39062,-0.39062 -1.02344,-0.39062 -1.41406,0l-2.04297,2.04297l-2.04297,-2.04297c-0.19531,-0.19531 -0.45117,-0.29297 -0.70703,-0.29297z"></path></g></g></svg>