<svg xmlns="http://www.w3.org/2000/svg" xmlns:xlink="http://www.w3.org/1999/xlink" viewBox="0,0,256,256" width="24px" height="24px" fill-rule="nonzero"><g fill="#79127c" fill-rule="nonzero" stroke="none" stroke-width="1" stroke-linecap="butt" stroke-linejoin="miter" stroke-miterlimit="10" stroke-dasharray="" stroke-dashoffset="0" font-family="none" font-weight="none" font-size="none" text-anchor="none" style="mix-blend-mode: normal"><g transform="scale(5.33333,5.33333)"><path d="M24,6c-0.95177,0 -1.85896,0.09518 -2.72461,0.22656c-0.54392,0.06422 -1.00962,0.41977 -1.21489,0.92755c-0.20528,0.50778 -0.1175,1.08707 0.22898,1.51126c0.34648,0.42418 0.8966,0.62582 1.43513,0.52603c0.76835,-0.11662 1.52316,-0.19141 2.27539,-0.19141c8.3024,0 15,6.6976 15,15c0,3.93426 -1.5275,7.48046 -4,10.15039v-3.65039c0.00582,-0.40562 -0.15288,-0.7963 -0.43991,-1.08296c-0.28703,-0.28666 -0.67792,-0.44486 -1.08353,-0.43852c-0.82766,0.01293 -1.48843,0.69381 -1.47656,1.52148v7c0.00008,0.82839 0.67161,1.49992 1.5,1.5h7c0.54095,0.00765 1.04412,-0.27656 1.31683,-0.74381c0.27271,-0.46725 0.27271,-1.04514 0,-1.51238c-0.27271,-0.46725 -0.77588,-0.75146 -1.31683,-0.74381h-3.10547c2.85832,-3.18412 4.60547,-7.39068 4.60547,-12c0,-9.9236 -8.0764,-18 -18,-18zM7.5,9c-0.54095,-0.00765 -1.04412,0.27656 -1.31683,0.74381c-0.27271,0.46725 -0.27271,1.04514 0,1.51238c0.27271,0.46725 0.77588,0.75146 1.31683,0.74381h3.10547c-2.85832,3.18412 -4.60547,7.39068 -4.60547,12c0,9.9236 8.0764,18 18,18c0.95177,0 1.85896,-0.09518 2.72461,-0.22656c0.54392,-0.06423 1.00961,-0.41978 1.21489,-0.92755c0.20528,-0.50778 0.1175,-1.08707 -0.22898,-1.51125c-0.34648,-0.42418 -0.89659,-0.62582 -1.43513,-0.52604c-0.76835,0.11662 -1.52316,0.19141 -2.27539,0.19141c-8.3024,0 -15,-6.6976 -15,-15c0,-3.93426 1.5275,-7.48046 4,-10.15039v3.65039c-0.00765,0.54095 0.27656,1.04412 0.74381,1.31683c0.46725,0.27271 1.04514,0.27271 1.51238,0c0.46725,-0.27271 0.75146,-0.77588 0.74381,-1.31683v-7c-0.00008,-0.82839 -0.67161,-1.49992 -1.5,-1.5zM24,18c-3.309,0 -6,2.691 -6,6c0,3.309 2.691,6 6,6c3.309,0 6,-2.691 6,-6c0,-3.309 -2.691,-6 -6,-6z"></path></g></g></svg>