<svg xmlns="http://www.w3.org/2000/svg" xmlns:xlink="http://www.w3.org/1999/xlink" viewBox="0,0,256,256" width="24px" height="24px" fill-rule="nonzero"><g fill="#0364ff" fill-rule="nonzero" stroke="none" stroke-width="1" stroke-linecap="butt" stroke-linejoin="miter" stroke-miterlimit="10" stroke-dasharray="" stroke-dashoffset="0" font-family="none" font-weight="none" font-size="none" text-anchor="none" style="mix-blend-mode: normal"><g transform="scale(10.66667,10.66667)"><path d="M12,2c-5.52,0 -10,4.48 -10,10c0,5.52 4.48,10 10,10c5.52,0 10,-4.48 10,-10c0,-5.52 -4.48,-10 -10,-10zM12,4c4.41,0 8,3.59 8,8c0,4.41 -3.59,8 -8,8c-4.41,0 -8,-3.59 -8,-8c0,-4.41 3.59,-8 8,-8zM12,6c-3.31,0 -6,2.69 -6,6c0,3.31 2.69,6 6,6c3.31,0 6,-2.69 6,-6c0,-3.31 -2.69,-6 -6,-6z"></path></g></g></svg>