<svg xmlns="http://www.w3.org/2000/svg" xmlns:xlink="http://www.w3.org/1999/xlink" viewBox="0,0,256,256" width="16px" height="16px" fill-rule="nonzero"><g fill="#1e286c" fill-rule="nonzero" stroke="none" stroke-width="1" stroke-linecap="butt" stroke-linejoin="miter" stroke-miterlimit="10" stroke-dasharray="" stroke-dashoffset="0" font-family="none" font-weight="none" font-size="none" text-anchor="none" style="mix-blend-mode: normal"><g transform="scale(5.12,5.12)"><path d="M49,13c-1.65234,0 -3,-1.34766 -3,-3c0,-0.55078 -0.44531,-1 -1,-1h-40c-0.55078,0 -1,0.44922 -1,1c0,1.65234 -1.34766,3 -3,3c-0.55078,0 -1,0.44922 -1,1v22c0,0.55469 0.44922,1 1,1c1.65234,0 3,1.34766 3,3c0,0.55469 0.44922,1 1,1h40c0.55469,0 1,-0.44531 1,-1c0,-1.65234 1.34766,-3 3,-3c0.55469,0 1,-0.44531 1,-1v-22c0,-0.55078 -0.44531,-1 -1,-1zM40,30h-30v-2h30zM40,22h-30v-2h30z"></path></g></g></svg>