<svg xmlns="http://www.w3.org/2000/svg" xmlns:xlink="http://www.w3.org/1999/xlink" viewBox="0,0,256,256" width="16px" height="16px" fill-rule="nonzero"><g fill="#7a358c" fill-rule="nonzero" stroke="none" stroke-width="1" stroke-linecap="butt" stroke-linejoin="miter" stroke-miterlimit="10" stroke-dasharray="" stroke-dashoffset="0" font-family="none" font-weight="none" font-size="none" text-anchor="none" style="mix-blend-mode: normal"><g transform="scale(0.5,0.5)"><path d="M254.62891,11.82813c-16.44876,0.67596 -29.89968,13.33957 -31.56533,29.71773c-1.66564,16.37816 8.96051,31.49039 24.93642,35.46391v44.91601c-30.64684,1.80483 -59.74518,14.076 -82.42969,34.76172l-31.42187,-31.41992c9.46883,-14.00971 6.84969,-32.90481 -6.07282,-43.81075c-12.92251,-10.90594 -31.98904,-10.31244 -44.20823,1.3761c-12.21919,11.68854 -13.65808,30.70996 -3.33625,44.10364c10.32183,13.39368 29.08212,16.84861 43.49816,8.01071l31.68945,31.6875c-20.69961,23.07631 -32.75749,52.61601 -34.11914,83.58593h-44.12305c-2.96703,-16.64428 -18.0068,-28.37297 -34.87239,-27.19507c-16.86559,1.17791 -30.12901,14.88332 -30.75362,31.77845c-0.62461,16.89513 11.59062,31.54248 28.32319,33.96251c16.73257,2.42003 32.59731,-8.16613 36.78524,-24.54589h44.7461c1.80134,30.57094 14.01822,59.60293 34.61719,82.26368l-31.23633,31.23828c-14.08558,-9.4 -32.99268,-6.66426 -43.83608,6.34282c-10.8434,13.00708 -10.13205,32.09783 1.64928,44.26187c11.78133,12.16404 30.83959,13.48513 44.18656,3.06294c13.34697,-10.42219 16.68554,-29.2322 7.74047,-43.61099l31.42578,-31.42383c22.84288,20.5576 52.05747,32.63938 82.74805,34.2207v44.1836c-16.53883,3.5779 -27.71749,19.05195 -25.91834,35.87744c1.79915,16.8255 15.99692,29.58605 32.91834,29.58605c16.92142,0 31.11919,-12.76055 32.91834,-29.58605c1.79915,-16.8255 -9.37951,-32.29955 -25.91834,-35.87744v-44.1836c30.95888,-1.59372 60.40803,-13.87007 83.33203,-34.73828l31.26758,31.26758c-9.29671,14.14668 -6.42858,33.02709 6.64983,43.77476c13.07841,10.74767 32.15672,9.90256 44.23359,-1.95942c12.07687,-11.86198 13.26434,-30.92204 2.75319,-44.19128c-10.51115,-13.26925 -29.33703,-16.47585 -43.64833,-7.43461l-31.38867,-31.39453c20.52166,-22.83307 32.58076,-52.02038 34.16016,-82.67969h44.45117c3.78538,16.92098 19.98741,28.053 37.14036,25.51824c17.15295,-2.53476 29.44275,-17.87714 28.17225,-35.16975c-1.2705,-17.29261 -15.67066,-30.67406 -33.00988,-30.67466h-0.00195h-0.00195c-15.66264,0.02203 -29.17413,10.99981 -32.40235,26.32617h-44.34961c-1.59631,-31.03663 -13.9294,-60.55376 -34.88867,-83.5l31.44531,-31.44726c14.08558,9.4 32.99268,6.66426 43.83608,-6.34282c10.8434,-13.00708 10.13205,-32.09783 -1.64928,-44.26187c-11.78133,-12.16404 -30.83959,-13.48513 -44.18656,-3.06294c-13.34697,10.42219 -16.68554,29.2322 -7.74047,43.61099l-31.65821,31.65625c-23.06754,-20.6597 -52.57878,-32.69195 -83.51562,-34.05078v-44.38477c17.07971,-3.15543 28.81396,-18.97793 26.87481,-36.23809c-1.93915,-17.26016 -16.8918,-30.08443 -34.2459,-29.37129zM256.55859,25.78906c10.42916,0.31772 18.67472,8.94359 18.52217,19.37647c-0.15255,10.43288 -8.64677,18.81399 -19.08076,18.82666c-10.54628,-0.01296 -19.0925,-8.55918 -19.10547,-19.10547c0.00005,-5.16397 2.09041,-10.10801 5.79485,-13.70574c3.70444,-3.59774 8.70744,-5.54275 13.86921,-5.39192zM405.55859,87.61719c7.67517,0.11268 14.53764,4.80788 17.42336,11.92079c2.88572,7.11291 1.23428,15.26222 -4.19289,20.69054c-4.80948,4.90905 -11.88488,6.85689 -18.52919,5.10102c-6.64431,-1.75587 -11.83369,-6.94487 -13.59003,-13.58905c-1.75635,-6.64418 0.19098,-13.71973 5.09969,-18.52956c3.6515,-3.65149 8.62562,-5.66932 13.78906,-5.59375zM107.55664,87.63281c4.7735,0.20915 9.29537,2.19936 12.67383,5.57813c4.90868,4.80984 6.85598,11.88537 5.09963,18.52953c-1.75635,6.64416 -6.94572,11.83315 -13.59,13.58902c-6.64429,1.75587 -13.71968,-0.19194 -18.52916,-5.10097c-5.57131,-5.572 -7.15038,-13.99279 -3.97634,-21.20472c3.17405,-7.21194 10.45007,-11.73551 18.32204,-11.39098zM250.98828,135.78711c32.80958,-1.36509 64.7559,10.71476 88.45359,33.44694c23.69769,22.73217 37.09518,54.14869 37.09524,86.98665c-0.07544,66.53954 -53.99757,120.46167 -120.53711,120.53711c-65.58459,-0.01387 -119.1227,-52.46117 -120.48644,-118.03158c-1.36374,-65.57041 49.94742,-120.19837 115.47472,-122.93912zM256.16602,156.62695c-1.28472,-0.03057 -2.55306,0.2931 -3.66602,0.93555l-80,46.18555c-2.16651,1.25084 -3.50081,3.56278 -3.5,6.06445v92.375c-0.00081,2.50167 1.33349,4.81361 3.5,6.06445l80,46.18555c2.16581,1.25043 4.83419,1.25043 7,0l80,-46.18555c2.16651,-1.25084 3.50081,-3.56278 3.5,-6.06445v-92.375c0.00081,-2.50167 -1.33349,-4.81361 -3.5,-6.06445l-80,-46.18555c-1.01544,-0.58614 -2.16184,-0.90783 -3.33398,-0.93555zM256,171.71094l25.21094,14.55468l-65.9961,38.09961l-25.20898,-14.55468zM295.21094,194.34766l26.78906,15.46093l-66,38.10157l-26.78516,-15.46289zM183,221.92969l66,38.10547v76.21679l-66,-38.10547zM329,221.92969v76.21679l-66,38.10547v-76.21679zM44.09375,236.91016c5.20028,-0.21587 10.26355,1.69914 14.01939,5.30235c3.75584,3.60322 5.87913,8.58273 5.87905,13.78749c-0.01241,10.54651 -8.55896,19.09305 -19.10547,19.10547c-10.39529,-0.00296 -18.88068,-8.31638 -19.09645,-18.70943c-0.21577,-10.39305 7.91727,-19.05148 18.30348,-19.48588zM466.32031,236.91016c5.20061,-0.21642 10.26439,1.69835 14.02066,5.30162c3.75627,3.60328 5.87983,8.58311 5.87973,13.78822c-0.01242,10.54727 -8.56015,19.09413 -19.10742,19.10547c-10.39529,-0.00296 -18.88068,-8.31638 -19.09645,-18.70943c-0.21577,-10.39305 7.91727,-19.05148 18.30348,-19.48588zM405.92773,386.10938c4.85073,0.185 9.44917,2.20943 12.86133,5.6621c4.87249,4.81724 6.79227,11.87485 5.03132,18.49649c-1.76095,6.62164 -6.93296,11.79327 -13.55472,13.55374c-6.62176,1.76047 -13.67924,-0.15981 -18.49613,-5.03265c-5.60405,-5.53993 -7.23201,-13.95214 -4.09937,-21.18282c3.13263,-7.23068 10.38315,-11.79636 18.25757,-11.49686zM106.96484,386.17773c4.63555,0.06356 9.08911,1.81402 12.52735,4.92383c0.50466,0.79283 1.16677,1.47356 1.94531,2c6.28544,7.59147 5.76257,18.71887 -1.20703,25.6875c-4.8169,4.87279 -11.87435,6.79303 -18.49608,5.03256c-6.62173,-1.76048 -11.79371,-6.93209 -13.55467,-13.55369c-1.76096,-6.62161 0.15878,-13.67919 5.03122,-18.49644c3.64036,-3.64659 8.60173,-5.66439 13.7539,-5.59375zM254.59375,448.07812c0.92796,0.18912 1.88454,0.18912 2.8125,0c9.96903,0.74185 17.68347,9.03858 17.69922,19.03516c0.01034,10.37172 -8.25591,18.85752 -18.62434,19.11898c-10.36843,0.26147 -19.05189,-7.7969 -19.56432,-18.15596c-0.51243,-10.35906 7.33332,-19.23508 17.67694,-19.99818z"></path></g></g></svg>