<svg xmlns="http://www.w3.org/2000/svg" xmlns:xlink="http://www.w3.org/1999/xlink" viewBox="0,0,256,256" width="16px" height="16px" fill-rule="nonzero"><g fill="#20c997" fill-rule="nonzero" stroke="none" stroke-width="1" stroke-linecap="butt" stroke-linejoin="miter" stroke-miterlimit="10" stroke-dasharray="" stroke-dashoffset="0" font-family="none" font-weight="none" font-size="none" text-anchor="none" style="mix-blend-mode: normal"><g transform="scale(8,8)"><path d="M4,5v20h4v5.07813l6.35156,-5.07812h13.64844v-20zM6,7h20v16h-12.35156l-3.64844,2.91797v-2.91797h-4zM11,9l-1,1l1,2l1.5,0.5l1.26172,1.26172l1.00391,-0.99609l-1.26562,-1.26562l-0.5,-1.5zM19,9c-1.65625,0 -3,1.34375 -3,3c0,0.28906 0.05469,0.5625 0.12891,0.82813l-5.69141,5.60938c-0.58594,0.58984 -0.58594,1.53906 0,2.125c0.58984,0.58594 1.53906,0.58594 2.125,0l5.625,-5.6875c0.25781,0.07031 0.52734,0.125 0.8125,0.125c1.65625,0 3,-1.34375 3,-3c0,-0.46094 -0.11328,-0.89453 -0.30078,-1.28516l-2.11328,2.11328l-1.41406,-1.41406l2.11328,-2.11328c-0.39062,-0.1875 -0.82422,-0.30078 -1.28516,-0.30078zM18.51563,15.96875l-1.80469,1.82031l2.72656,2.77344c0.58984,0.58594 1.53906,0.58594 2.125,0c0.58594,-0.58984 0.58594,-1.53906 0,-2.125l-2.49609,-2.44531c-0.02344,0 -0.04297,0.00781 -0.06641,0.00781c-0.16016,0 -0.32031,-0.01172 -0.48437,-0.03125z"></path></g></g></svg>