<svg xmlns="http://www.w3.org/2000/svg" xmlns:xlink="http://www.w3.org/1999/xlink" viewBox="0,0,256,256" width="16px" height="16px" fill-rule="nonzero"><g fill="#574d4d" fill-rule="nonzero" stroke="none" stroke-width="1" stroke-linecap="butt" stroke-linejoin="miter" stroke-miterlimit="10" stroke-dasharray="" stroke-dashoffset="0" font-family="none" font-weight="none" font-size="none" text-anchor="none" style="mix-blend-mode: normal"><g transform="scale(8.53333,8.53333)"><path d="M15,3c-6.627,0 -12,5.373 -12,12c0,6.627 5.373,12 12,12c6.627,0 12,-5.373 12,-12c0,-6.627 -5.373,-12 -12,-12zM15,5c0.552,0 1,0.448 1,1c0,0.552 -0.448,1 -1,1c-0.552,0 -1,-0.448 -1,-1c0,-0.552 0.448,-1 1,-1zM6,16c-0.552,0 -1,-0.448 -1,-1c0,-0.552 0.448,-1 1,-1c0.552,0 1,0.448 1,1c0,0.552 -0.448,1 -1,1zM9.343,22.071c-0.391,0.391 -1.024,0.391 -1.414,0c-0.391,-0.391 -0.391,-1.024 0,-1.414c0.391,-0.391 1.024,-0.391 1.414,0c0.391,0.39 0.391,1.024 0,1.414zM9.343,9.343c-0.391,0.391 -1.024,0.391 -1.414,0c-0.391,-0.391 -0.391,-1.024 0,-1.414c0.391,-0.391 1.024,-0.391 1.414,0c0.391,0.39 0.391,1.024 0,1.414zM13.586,16.414c-0.781,-0.781 -0.781,-2.047 0,-2.828c0.491,-0.491 4.477,-3.36 7.372,-5.425c0.581,-0.414 1.296,0.301 0.881,0.881c-2.065,2.895 -4.934,6.881 -5.425,7.372c-0.781,0.781 -2.047,0.781 -2.828,0zM22.071,22.071c-0.391,0.391 -1.024,0.391 -1.414,0c-0.39,-0.391 -0.391,-1.024 0,-1.414c0.391,-0.391 1.024,-0.391 1.414,0c0.391,0.39 0.391,1.024 0,1.414zM24,16c-0.552,0 -1,-0.448 -1,-1c0,-0.552 0.448,-1 1,-1c0.552,0 1,0.448 1,1c0,0.552 -0.448,1 -1,1z"></path></g></g></svg>